<?xml version="1.0" standalone="no"?>
<!DOCTYPE svg PUBLIC "-//W3C//DTD SVG 20010904//EN"
 "http://www.w3.org/TR/2001/REC-SVG-20010904/DTD/svg10.dtd">
<svg version="1.0" xmlns="http://www.w3.org/2000/svg"
 width="1024.000000pt" height="1024.000000pt" viewBox="0 0 1024.000000 1024.000000"
 preserveAspectRatio="xMidYMid meet">
<metadata>
Created by potrace 1.14, written by Peter Selinger 2001-2017
</metadata>
<g transform="translate(0.000000,1024.000000) scale(0.100000,-0.100000)"
fill="#000000" stroke="none">
<path d="M6957 10154 c-1 -1 -27 -4 -58 -8 -170 -17 -313 -110 -416 -271 -78
-123 -107 -220 -128 -424 -2 -30 -6 -56 -8 -58 -2 -2 -60 15 -128 37 -68 22
-131 40 -140 40 -9 0 -19 3 -23 8 -4 4 -11 7 -14 7 -42 3 -87 21 -113 46 -29
27 -37 30 -73 24 -49 -8 -61 -8 -101 -1 -78 16 -169 20 -392 21 -134 0 -243 1
-243 2 0 10 35 73 41 73 4 0 37 51 74 113 37 61 85 133 107 159 21 26 34 49
29 53 -6 3 -54 3 -108 -1 -54 -4 -104 -7 -111 -7 -20 0 -109 -117 -172 -222
-29 -49 -60 -101 -69 -115 -9 -14 -23 -37 -30 -52 -12 -22 -22 -28 -50 -29
-20 0 -45 -2 -56 -4 -11 -3 -47 -7 -80 -10 -32 -3 -64 -10 -71 -15 -11 -10
-26 41 -38 130 -3 19 -7 44 -9 55 -3 11 -8 43 -12 70 -5 28 -9 53 -11 58 -1 4
-2 17 -3 28 -1 22 -5 22 -66 5 -11 -3 -50 -13 -88 -22 l-67 -17 5 -46 c3 -25
13 -75 21 -111 19 -78 25 -108 28 -135 1 -12 5 -26 9 -32 9 -15 1 -20 -43 -27
-19 -3 -57 -10 -85 -15 -27 -6 -61 -13 -75 -15 -14 -2 -77 -18 -140 -36 -63
-17 -158 -43 -210 -56 -52 -14 -131 -41 -175 -60 -44 -19 -84 -36 -90 -37 -5
-1 -12 -4 -15 -7 -3 -3 -32 -14 -65 -24 -33 -11 -64 -23 -70 -27 -5 -3 -21
-10 -35 -14 -14 -4 -86 -37 -159 -72 -126 -60 -136 -64 -148 -47 -24 32 -15
58 25 76 78 37 177 82 182 83 3 1 25 11 50 22 25 12 101 45 170 73 69 28 145
60 170 72 24 11 55 24 67 29 27 10 28 16 7 91 -18 62 -24 66 -76 44 -80 -35
-110 -47 -218 -90 -112 -44 -265 -109 -345 -146 -22 -10 -60 -27 -85 -38 -129
-57 -545 -262 -650 -319 -25 -14 -84 -45 -132 -70 -56 -29 -88 -52 -88 -62 0
-21 48 -124 62 -132 11 -7 23 -1 193 93 112 63 438 229 441 225 5 -6 34 -80
32 -82 -2 -2 -46 -29 -98 -61 -52 -32 -96 -62 -98 -66 -2 -5 -8 -8 -14 -8 -9
0 -96 -56 -108 -69 -5 -6 -46 -35 -108 -77 -20 -14 -48 -35 -62 -47 -14 -12
-50 -42 -80 -67 -117 -96 -313 -287 -483 -472 l-88 -96 -77 80 c-149 156 -333
354 -389 418 -107 121 -102 117 -118 96 -8 -11 -15 -31 -16 -45 0 -14 -2 -35
-5 -46 -2 -11 -6 -42 -9 -70 -3 -27 -7 -63 -10 -80 -2 -16 -7 -59 -10 -95 -3
-36 -8 -75 -10 -87 -5 -23 -11 -75 -20 -183 -4 -36 -8 -82 -10 -102 -2 -21 0
-38 4 -38 3 0 5 -15 4 -32 -10 -142 -13 -183 -18 -258 -6 -90 -13 -236 -20
-385 -2 -49 -6 -144 -9 -210 -7 -150 -15 -320 -21 -450 -3 -55 -8 -145 -10
-200 -5 -105 -11 -214 -20 -342 -3 -43 -8 -125 -11 -183 -3 -57 -8 -109 -11
-114 -10 -15 22 0 82 39 31 19 60 35 65 35 6 0 10 3 10 8 0 4 27 22 59 41 57
32 59 35 59 75 0 22 2 97 6 166 10 205 16 353 21 580 4 147 10 219 18 227 20
20 310 224 299 210 -9 -11 1 -16 53 -29 138 -33 291 2 385 87 34 31 70 41 70
21 0 -9 -3 -16 -7 -16 -5 0 -13 -10 -19 -23 -28 -57 -87 -174 -95 -187 -5 -8
-13 -24 -18 -36 -5 -11 -31 -65 -57 -120 -27 -54 -48 -102 -46 -106 1 -5 -3
-8 -8 -8 -6 0 -10 -5 -10 -10 0 -9 -25 -64 -165 -355 -23 -49 -61 -129 -84
-176 -23 -47 -41 -91 -41 -97 0 -7 -5 -12 -11 -12 -5 0 -7 -4 -4 -10 3 -5 1
-10 -4 -10 -6 0 -11 -6 -11 -14 0 -7 -7 -19 -15 -26 -8 -7 -15 -21 -15 -31 0
-11 -4 -19 -10 -19 -5 0 -10 -4 -10 -9 0 -6 -13 -30 -30 -54 -16 -25 -30 -50
-30 -56 0 -6 -5 -11 -11 -11 -6 0 -8 -7 -5 -17 4 -10 4 -14 0 -10 -4 3 -44
-48 -89 -116 -46 -67 -87 -126 -92 -132 -4 -5 -45 -58 -91 -116 -89 -115 -208
-234 -286 -286 -26 -18 -73 -41 -105 -50 -61 -18 -59 -18 -111 -27 -19 -3 -53
-11 -75 -17 -47 -13 -165 -17 -165 -6 0 4 -12 7 -27 7 -16 0 -48 7 -73 16 -25
9 -53 16 -62 17 -10 1 -18 5 -18 9 0 4 -10 8 -22 7 -22 0 -22 -1 -3 -9 11 -5
14 -9 7 -9 -9 -1 -11 -10 -7 -33 3 -18 7 -39 7 -45 1 -7 4 -13 8 -13 3 0 7
-10 7 -22 1 -13 9 -28 17 -34 9 -6 13 -14 10 -17 -14 -14 109 -210 176 -280
46 -49 153 -137 166 -137 4 0 15 -6 23 -13 15 -13 108 -42 156 -50 11 -1 26
-6 33 -10 6 -5 12 -6 12 -3 0 2 15 0 33 -5 17 -5 73 -12 122 -15 122 -9 121
-8 117 -30 -2 -11 -8 -20 -13 -22 -5 -2 -9 -9 -9 -16 0 -14 -33 -80 -50 -101
-6 -8 -13 -21 -14 -30 -1 -9 -7 -20 -12 -23 -5 -4 -22 -26 -38 -49 -26 -39
-47 -60 -30 -30 4 6 -2 3 -15 -7 -12 -11 -19 -26 -16 -33 2 -8 1 -12 -4 -9 -5
3 -24 -13 -42 -36 -83 -103 -235 -229 -307 -255 -9 -4 -19 -9 -22 -12 -10 -12
-50 -31 -64 -31 -8 0 -16 -5 -18 -11 -5 -15 -67 -22 -84 -8 -18 15 -18 2 0
-17 8 -7 16 -17 18 -21 4 -11 96 -74 111 -77 7 -1 27 -10 45 -19 17 -10 32
-15 32 -11 0 4 6 1 14 -5 8 -6 18 -11 22 -10 5 1 23 -4 39 -11 21 -10 77 -14
187 -15 144 0 158 -2 158 -17 0 -10 -4 -18 -9 -18 -5 0 -13 -15 -16 -32 -4
-18 -11 -37 -15 -43 -4 -5 -13 -28 -20 -50 -7 -22 -16 -44 -20 -50 -4 -5 -6
-20 -5 -33 1 -13 -2 -25 -6 -28 -7 -4 -53 -145 -64 -194 -2 -8 -11 -40 -20
-70 -8 -30 -17 -62 -19 -70 -3 -8 -5 -15 -6 -15 -1 0 -3 -9 -4 -20 -2 -11 -8
-38 -14 -60 -6 -22 -13 -51 -16 -65 -3 -14 -10 -45 -17 -70 -6 -25 -12 -54
-15 -65 -16 -81 -24 -124 -28 -150 -2 -16 -5 -30 -6 -30 -3 0 -10 -42 -14 -90
-3 -27 -6 -52 -7 -55 -1 -3 -3 -18 -5 -35 -1 -16 -3 -32 -4 -35 -11 -34 -18
-308 -8 -353 8 -38 19 -97 24 -132 1 -11 3 -20 4 -20 1 0 3 -9 5 -19 2 -10 7
-22 12 -25 4 -3 9 -13 11 -21 4 -19 34 -83 41 -90 4 -3 13 -18 21 -35 16 -32
126 -192 147 -213 7 -7 16 -19 20 -25 5 -7 21 -23 37 -35 16 -12 25 -22 20
-22 -5 0 10 -18 34 -40 28 -27 42 -49 43 -67 1 -16 3 -44 4 -63 3 -40 4 -138
3 -190 -1 -31 3 -85 17 -215 2 -22 6 -53 10 -70 3 -16 8 -43 10 -60 15 -106
63 -274 105 -372 l22 -53 160 0 160 0 -6 27 c-19 98 -29 282 -26 496 1 34 5
45 13 40 7 -4 5 2 -3 12 -12 15 -12 17 -1 10 11 -6 13 -3 9 13 -3 12 -1 23 6
26 7 3 7 5 -2 5 -8 1 -10 7 -5 19 11 21 10 43 -1 61 -6 10 -5 12 2 7 8 -5 12
6 13 36 2 77 7 129 13 135 3 3 1 12 -5 19 -7 8 -7 14 1 19 8 5 7 11 -2 23 -10
12 -10 14 0 8 9 -5 12 4 13 36 1 24 2 57 4 73 1 17 6 73 9 125 11 141 13 160
20 167 3 4 6 -9 7 -28 0 -19 2 -43 5 -54 2 -11 6 -40 10 -65 3 -25 12 -76 21
-115 8 -38 16 -83 19 -100 2 -16 13 -64 24 -105 12 -41 22 -82 25 -90 7 -30
65 -216 79 -255 8 -22 20 -61 27 -87 7 -27 17 -48 21 -48 4 0 7 -3 6 -7 -4
-18 14 -73 24 -73 6 0 9 -3 5 -6 -6 -6 11 -53 49 -139 10 -22 18 -42 19 -45 0
-3 16 -35 34 -73 l33 -67 170 0 c144 0 169 2 165 14 -8 20 -27 90 -26 96 0 3
-5 19 -11 35 -6 17 -14 48 -16 70 -3 22 -10 45 -16 52 -6 7 -7 13 -3 13 12 0
34 -33 35 -51 0 -8 7 -24 15 -35 13 -18 14 -18 8 6 -5 26 69 -86 106 -159 l21
-41 3311 0 3310 0 -18 31 c-10 17 -70 79 -133 138 -63 58 -117 109 -120 112
-17 19 -183 147 -207 159 -15 8 -30 17 -33 20 -13 13 -70 40 -70 33 0 -4 -4
-2 -8 4 -4 7 -19 14 -32 15 -14 2 -31 8 -37 15 -7 6 -21 10 -30 9 -10 -2 -20
0 -23 5 -3 4 -17 9 -31 11 -14 2 -34 11 -43 21 -10 9 -27 17 -39 18 -12 0 -32
13 -45 29 l-23 29 22 11 c11 7 33 14 47 16 87 16 282 144 400 263 76 78 134
141 128 141 -3 0 7 13 22 29 122 132 220 357 298 683 24 103 42 158 55 170 11
9 19 21 19 27 0 6 4 10 9 9 11 -3 46 44 92 122 27 46 79 109 79 95 0 -2 10 6
23 18 13 12 22 25 20 29 -2 5 0 8 6 8 6 0 30 26 53 57 24 32 45 60 48 63 5 5
24 39 74 135 30 58 100 212 102 228 1 4 3 9 4 12 1 3 3 8 5 13 1 4 4 14 8 22
14 37 31 96 29 103 -1 4 3 7 9 7 6 0 8 -7 5 -17 -4 -9 -9 -32 -12 -52 -4 -20
-7 -40 -8 -46 -1 -5 -4 -14 -7 -20 -6 -9 -19 -55 -24 -80 -1 -5 -3 -12 -4 -15
-2 -3 -4 -12 -6 -21 -1 -9 -10 -32 -19 -51 -10 -20 -18 -47 -20 -61 -1 -14
-10 -32 -19 -42 -9 -9 -17 -25 -17 -36 0 -10 -5 -19 -11 -19 -6 0 -8 -7 -5
-16 3 -8 2 -13 -3 -10 -4 3 -17 -4 -27 -17 -10 -12 -12 -16 -4 -9 21 18 35 14
19 -6 -8 -10 5 2 29 27 46 49 115 155 115 178 0 7 3 13 7 13 3 0 14 24 25 53
10 28 22 58 28 65 5 6 7 12 4 12 -4 0 0 18 8 39 7 22 11 42 8 45 -4 3 -1 6 6
6 8 0 11 7 7 15 -3 8 -1 15 5 15 6 0 7 4 4 10 -3 5 -1 19 5 30 6 11 13 37 15
57 2 21 7 49 9 63 21 95 47 376 49 520 1 42 -12 203 -18 245 -3 17 -7 46 -9
65 -2 19 -5 35 -6 35 -1 0 -3 9 -5 20 -2 11 -7 36 -11 55 -5 19 -9 40 -9 45
-2 13 -13 58 -28 115 -6 25 -12 48 -13 53 -1 4 -3 9 -4 12 -3 6 -4 11 -14 50
-7 28 -30 99 -43 135 -3 8 -7 21 -9 28 -1 8 -6 21 -10 30 -4 9 -8 20 -8 24 -1
3 -4 10 -8 14 -5 4 -8 14 -8 23 0 9 -7 29 -15 45 -8 15 -15 32 -15 36 0 5 -10
30 -22 57 -11 26 -22 53 -23 59 -2 5 -14 36 -29 67 -14 32 -26 62 -26 67 0 6
-4 10 -8 10 -5 0 -9 6 -9 13 0 12 -182 388 -192 397 -3 3 -21 37 -40 75 -19
39 -37 72 -41 75 -3 3 -15 23 -26 45 -43 84 -69 130 -76 133 -5 2 -8 8 -8 13
0 5 -11 27 -25 49 -29 46 -29 46 -12 47 11 1 38 6 92 17 11 2 32 9 48 15 15 6
27 8 27 6 0 -9 175 86 186 101 6 8 16 14 22 14 11 0 192 172 192 183 0 3 16
23 35 44 19 21 35 42 35 46 0 4 5 13 11 20 43 50 205 316 228 377 42 111 46
124 30 114 -11 -6 -12 -5 -3 7 6 8 15 25 19 39 4 14 15 30 23 36 12 8 8 11
-17 11 -18 0 -31 -6 -31 -13 0 -14 -34 -38 -70 -49 -14 -4 -38 -13 -55 -20
-67 -29 -73 -31 -170 -52 -44 -10 -270 -9 -350 1 -27 3 -70 9 -95 12 -25 2
-56 7 -70 10 -14 3 -36 8 -50 10 -131 22 -311 79 -370 117 -19 12 -47 29 -62
36 -16 8 -28 18 -28 23 0 4 -7 8 -15 8 -8 0 -15 5 -15 10 0 6 -6 10 -13 10 -8
0 -24 11 -37 25 -13 14 -25 23 -28 20 -2 -2 -11 3 -19 11 -8 8 -31 26 -51 41
-49 36 -166 138 -216 188 -22 22 -43 39 -48 37 -4 -1 -8 3 -8 8 0 6 -30 42
-67 79 -91 91 -143 153 -143 170 0 7 -6 11 -14 8 -10 -4 -13 -1 -9 9 4 10 -2
17 -16 21 -11 3 -19 9 -16 13 3 4 -6 19 -19 33 -13 14 -21 28 -18 31 11 12
-15 6 -28 -6 -12 -11 -12 -10 -1 5 17 22 -4 54 -24 37 -10 -8 -15 -8 -21 1 -4
7 -3 9 4 5 21 -13 25 18 4 35 -12 9 -22 22 -22 28 0 12 -13 15 -23 4 -4 -3 0
-15 10 -25 9 -10 12 -18 7 -18 -5 0 -19 16 -32 35 -12 19 -27 35 -32 35 -6 0
-10 8 -10 18 0 13 6 10 25 -12 14 -16 28 -26 31 -23 4 3 -12 25 -35 48 -44 45
-50 59 -26 59 20 0 165 144 165 163 0 8 7 20 15 27 8 7 13 16 10 20 -3 5 -1
11 5 15 13 8 56 147 65 210 20 142 20 322 0 455 -3 19 -8 51 -11 70 -9 57 -26
142 -38 185 -3 11 -10 40 -16 65 -16 67 -71 233 -83 248 -5 6 -7 12 -4 12 20
0 -193 447 -260 546 -107 157 -350 355 -479 389 -29 8 -153 23 -157 19z m161
-206 c20 -6 39 -12 42 -11 9 2 155 -100 196 -137 180 -164 378 -584 439 -931
3 -18 8 -35 10 -38 2 -4 6 -31 9 -61 4 -30 9 -68 11 -85 2 -16 5 -79 5 -140 2
-186 -18 -285 -78 -400 -29 -54 -128 -158 -143 -149 -5 3 -9 1 -9 -4 0 -5 -27
-15 -60 -21 -65 -13 -80 -9 -125 33 -47 43 -262 205 -267 200 -3 -2 -35 18
-72 44 l-67 49 31 13 c17 7 57 37 88 66 31 30 59 54 63 54 3 0 21 15 40 33 37
36 55 82 54 137 0 19 4 38 10 42 6 5 6 8 0 8 -5 0 -9 21 -8 46 2 61 -37 173
-82 235 -19 27 -35 54 -35 60 0 5 -5 7 -10 4 -6 -4 -20 5 -31 18 -10 14 -43
43 -72 63 -28 21 -54 41 -57 45 -7 10 -273 142 -340 169 -30 12 -58 27 -61 32
-8 13 -2 120 11 183 6 28 12 60 15 73 23 123 122 269 223 329 92 54 189 69
270 41z m-1623 -842 c39 -3 87 -8 107 -11 20 -3 56 -8 80 -10 86 -7 145 -18
248 -47 58 -16 112 -31 120 -33 8 -2 15 -4 15 -5 0 -1 7 -3 15 -5 24 -4 188
-61 270 -93 41 -16 76 -35 78 -43 12 -43 85 -237 107 -285 28 -61 27 -71 -2
-55 -34 19 -207 79 -308 106 -55 15 -111 30 -125 34 -18 6 -25 15 -27 35 -2
31 -26 71 -56 99 -45 39 -128 7 -145 -56 -5 -18 -15 -31 -22 -29 -6 1 -42 4
-79 7 -36 2 -66 4 -66 5 0 7 -36 6 -41 -1 -4 -6 -11 -6 -19 1 -9 7 -15 8 -19
1 -4 -6 -12 -8 -19 -6 -26 10 -78 12 -83 3 -3 -5 -11 -5 -17 0 -7 4 -74 9
-150 10 l-138 3 -196 114 c-108 63 -200 115 -204 115 -4 0 6 34 23 74 l30 75
47 3 c69 5 496 0 576 -6z m-983 -115 c9 -40 19 -84 22 -99 2 -15 5 -27 6 -27
1 0 3 -7 5 -15 2 -8 12 -52 23 -98 11 -45 17 -84 13 -86 -3 -2 -42 -14 -86
-26 -44 -12 -107 -31 -140 -42 -33 -11 -77 -19 -98 -19 -26 0 -35 -4 -30 -12
5 -9 3 -9 -8 -1 -8 6 -23 10 -34 8 -11 -2 -36 -5 -55 -7 -19 -2 -42 -7 -50
-10 -8 -3 -28 -8 -45 -10 -16 -3 -75 -19 -130 -37 -177 -57 -185 -60 -203 -60
-10 0 -23 -5 -30 -12 -7 -7 -12 -9 -12 -6 0 4 -26 -2 -57 -13 -32 -11 -67 -22
-77 -24 -11 -3 -24 -9 -30 -15 -5 -5 -16 -10 -23 -10 -7 0 -37 -12 -68 -26
-31 -15 -57 -25 -59 -23 -2 2 -16 40 -31 84 -25 74 -29 88 -34 107 -1 4 -13
35 -27 70 -13 34 -24 65 -24 68 0 4 30 21 68 39 37 18 74 36 82 41 34 21 161
74 173 72 4 -1 7 3 7 8 0 6 7 10 15 10 8 0 23 4 33 10 34 18 89 39 187 70 55
18 107 34 115 38 8 3 21 4 28 3 8 -1 44 7 81 19 36 11 77 22 89 25 45 10 58
13 97 23 22 6 51 13 65 16 119 23 184 36 187 40 2 2 12 3 21 2 11 -2 21 -25
34 -75z m2271 -293 c8 -7 15 -17 16 -23 2 -5 8 -9 13 -7 6 2 23 -9 38 -23 24
-23 27 -31 20 -56 -12 -40 -42 -89 -52 -83 -5 3 -6 9 -3 14 3 5 0 12 -5 15
-11 7 -29 45 -26 56 0 4 -8 16 -18 28 -11 12 -16 21 -11 21 4 0 1 10 -7 23
-29 45 -30 58 -3 53 14 -3 31 -11 38 -18z m128 -125 c-8 -15 -10 -15 -11 -2 0
17 10 32 18 25 2 -3 -1 -13 -7 -23z m-3817 -217 c43 -124 50 -157 41 -170 -7
-9 -19 -16 -28 -16 -9 0 -20 -6 -24 -13 -7 -11 -47 -40 -192 -136 -20 -13 -38
-27 -41 -30 -3 -4 -36 -31 -75 -60 -38 -30 -77 -60 -85 -68 -8 -7 -40 -34 -70
-60 -69 -61 -143 -136 -189 -193 -20 -25 -46 -56 -59 -70 -12 -14 -25 -33 -28
-42 -3 -10 -10 -18 -15 -18 -6 0 -7 -4 -4 -10 3 -5 1 -10 -4 -10 -6 0 -11 -7
-11 -15 0 -8 -5 -15 -11 -15 -5 0 -7 -4 -4 -10 3 -5 2 -10 -4 -10 -5 0 -13
-10 -17 -22 -6 -21 -7 -21 -20 -2 -20 26 -29 37 -114 139 -41 50 -81 97 -88
106 -10 14 -3 26 50 84 147 159 452 457 573 560 32 28 75 65 94 83 20 19 47
41 61 50 14 9 35 25 47 36 12 10 50 35 85 56 50 31 65 36 71 24 4 -7 32 -83
61 -168z m366 -31 c0 -2 -10 -9 -22 -15 -22 -11 -22 -10 -4 4 21 17 26 19 26
11z m-65 -35 c-10 -11 -21 -18 -23 -15 -3 3 3 12 14 20 27 20 30 18 9 -5z
m-1989 -305 c85 -99 101 -119 152 -175 l40 -45 -32 -45 c-42 -58 -105 -178
-121 -230 -15 -51 -29 -98 -31 -109 -1 -7 -8 -36 -14 -63 -13 -54 -7 -121 15
-154 17 -27 10 -36 -63 -87 -67 -48 -74 -49 -76 -9 0 17 1 32 4 32 3 0 5 55 6
123 2 255 22 783 33 857 1 5 1 5 87 -95z m2474 -138 c0 -2 -14 -16 -32 -33
-18 -16 -26 -20 -18 -9 19 25 50 52 50 42z m-74 -95 c-17 -16 -18 -16 -5 5 7
12 15 20 18 17 3 -2 -3 -12 -13 -22z m1444 -43 c15 -28 5 -23 -15 7 -9 15 -12
23 -6 20 6 -4 16 -16 21 -27z m2490 -14 c17 -21 5 -31 -15 -12 -8 9 -15 18
-15 21 0 11 18 6 30 -9z m-2431 -95 c11 -24 11 -24 -3 -6 -9 11 -16 24 -16 30
0 12 5 7 19 -24z m49 -93 c7 -16 8 -26 3 -23 -5 3 -14 20 -20 38 -13 38 0 26
17 -15z m32 -67 c0 -5 -2 -10 -4 -10 -3 0 -8 5 -11 10 -3 6 -1 10 4 10 6 0 11
-4 11 -10z m14 -36 c3 -8 2 -12 -4 -9 -6 3 -10 10 -10 16 0 14 7 11 14 -7z
m26 -59 c0 -5 -5 -3 -10 5 -5 8 -10 20 -10 25 0 6 5 3 10 -5 5 -8 10 -19 10
-25z m14 -31 c3 -8 2 -12 -4 -9 -6 3 -10 10 -10 16 0 14 7 11 14 -7z m-1784
-71 c-11 -17 -11 -17 -6 0 3 10 7 26 7 35 1 15 2 15 6 0 2 -10 -1 -25 -7 -35z
m1809 -2 c0 -14 -1 -14 -6 -1 -3 8 -10 24 -15 35 -9 20 -9 20 6 1 9 -11 16
-27 15 -35z m-1816 -46 c-7 -21 -12 -19 -10 4 0 11 5 18 9 15 4 -3 5 -11 1
-19z m-3 -35 c0 -5 -5 -10 -11 -10 -5 0 -7 5 -4 10 3 6 8 10 11 10 2 0 4 -4 4
-10z m-19 -66 c-5 -21 -9 -30 -10 -19 -1 24 10 67 15 62 3 -2 0 -22 -5 -43z
m-21 -148 c-4 -19 -5 -38 -1 -42 3 -4 1 -4 -5 -1 -8 5 -9 18 -4 41 4 19 5 38
1 42 -3 4 -1 4 5 1 8 -5 9 -18 4 -41z m-15 -126 c-1 -11 -4 -22 -7 -25 -4 -5
-4 34 1 43 4 8 7 -1 6 -18z m5050 -68 c-3 -3 -11 0 -18 7 -9 10 -8 11 6 5 10
-3 15 -9 12 -12z m-8356 -1827 c16 -8 31 -11 35 -8 3 4 6 1 6 -6 0 -14 -33 -6
-65 15 -26 18 -11 18 24 -1z m9458 -2062 c-9 -48 -16 -76 -22 -81 -3 -3 -2 12
1 34 4 21 7 47 8 57 0 9 4 17 9 17 5 0 7 -12 4 -27z m-1213 -1029 c-3 -31 -10
-39 -19 -25 -3 6 -1 11 5 11 6 0 8 5 5 10 -3 6 -3 15 0 20 10 16 12 12 9 -16z
m-4 -58 c0 -6 -5 -18 -11 -26 -9 -12 -10 -11 -4 5 5 16 4 17 -6 8 -9 -9 -9
-16 -1 -26 7 -8 10 -16 7 -19 -6 -6 -40 -124 -50 -173 -8 -40 -13 -60 -15 -60
-1 0 -3 -7 -5 -15 -2 -8 -6 -26 -9 -40 -19 -88 -56 -213 -68 -227 -6 -7 -8
-13 -5 -13 4 0 -3 -21 -14 -47 -34 -78 -42 -98 -44 -103 0 -3 -29 -60 -63
-127 -57 -113 -69 -149 -36 -105 11 14 12 12 2 -15 -7 -20 -23 -37 -40 -44
-15 -6 -28 -15 -28 -20 0 -17 -40 -49 -53 -43 -8 3 -20 16 -27 30 -7 13 -17
24 -22 24 -4 0 -8 6 -8 13 0 7 -9 18 -20 25 -12 7 -18 17 -15 22 3 6 1 10 -5
10 -6 0 -22 10 -35 22 -42 39 -53 47 -59 41 -3 -4 -6 -1 -6 6 0 7 -4 10 -9 7
-5 -4 -8 1 -7 9 1 9 16 24 33 35 45 27 65 44 177 156 110 110 108 108 151 174
70 106 205 348 204 365 0 3 10 27 22 53 11 26 22 52 23 57 1 6 7 20 14 31 6
12 8 24 4 28 -3 4 1 4 11 0 9 -3 17 -11 17 -18z m401 -343 c-12 -20 -14 -14
-5 12 4 9 9 14 11 11 3 -2 0 -13 -6 -23z m-779 -220 c-6 -3 -9 -10 -6 -15 4
-7 2 -8 -5 -4 -9 6 -9 11 0 22 6 8 15 12 18 8 3 -4 0 -9 -7 -11z m-5103 -804
c24 -33 56 -73 70 -89 14 -15 37 -40 50 -56 13 -16 31 -38 40 -48 15 -18 15
-18 -7 -7 -17 9 -22 9 -20 0 2 -6 -5 -13 -14 -14 -10 -2 -18 2 -18 8 0 7 -14
30 -30 51 -17 22 -30 46 -30 53 0 7 -4 13 -10 13 -5 0 -10 6 -10 13 0 7 -9 23
-20 35 -12 12 -18 22 -15 22 3 0 -6 18 -20 40 -39 61 -15 47 34 -21z m391
-109 c6 -11 8 -20 6 -20 -3 0 -10 9 -16 20 -6 11 -8 20 -6 20 3 0 10 -9 16
-20z"/>
</g>
</svg>
