<?xml version="1.0" standalone="no"?>
<!DOCTYPE svg PUBLIC "-//W3C//DTD SVG 20010904//EN"
 "http://www.w3.org/TR/2001/REC-SVG-20010904/DTD/svg10.dtd">
<svg version="1.0" xmlns="http://www.w3.org/2000/svg"
 width="1024.000000pt" height="1024.000000pt" viewBox="0 0 1024.000000 1024.000000"
 preserveAspectRatio="xMidYMid meet">
<metadata>
Created by potrace 1.14, written by Peter Selinger 2001-2017
</metadata>
<g transform="translate(0.000000,1024.000000) scale(0.100000,-0.100000)"
fill="#000000" stroke="none">
<path d="M3597 9744 c-1 -2 -16 -5 -32 -8 -36 -5 -118 -19 -125 -21 -3 -1 -21
-5 -40 -9 -19 -4 -80 -21 -135 -38 -55 -18 -103 -31 -107 -30 -5 1 -8 -2 -8
-8 0 -5 -9 -10 -19 -10 -11 0 -21 -3 -23 -7 -1 -5 -29 -20 -60 -35 -32 -15
-96 -52 -142 -83 -47 -30 -87 -55 -90 -55 -4 0 -6 8 -6 18 0 27 -42 72 -70 74
-14 2 -28 7 -32 12 -4 6 -13 4 -22 -3 -9 -8 -16 -10 -16 -7 0 4 -31 -24 -70
-62 -38 -38 -72 -67 -75 -64 -3 3 -5 0 -5 -6 0 -6 -16 -28 -35 -49 -19 -21
-35 -44 -35 -51 0 -7 -4 -10 -10 -7 -5 3 -10 2 -10 -2 0 -5 -18 -29 -40 -53
-22 -25 -40 -49 -40 -53 0 -5 -5 -5 -12 -1 -7 5 -9 2 -6 -8 4 -8 -2 -21 -13
-29 -10 -7 -19 -17 -19 -21 0 -4 -16 -24 -35 -44 -19 -20 -32 -41 -28 -46 3
-7 1 -8 -5 -4 -7 4 -12 3 -12 -2 0 -5 -9 -20 -21 -33 -11 -13 -29 -34 -40 -47
-10 -12 -19 -25 -19 -28 0 -4 -18 -28 -40 -54 -22 -26 -40 -53 -40 -59 0 -7
-4 -10 -9 -6 -5 3 -15 -10 -22 -30 -7 -19 -15 -32 -18 -30 -2 3 -19 -18 -38
-45 -18 -28 -38 -50 -44 -50 -6 0 -7 -4 -4 -10 3 -5 1 -10 -5 -10 -6 0 -8 -4
-5 -10 3 -5 2 -10 -3 -10 -5 0 -26 -26 -48 -57 -21 -32 -49 -69 -61 -83 -13
-14 -23 -30 -23 -37 0 -7 -4 -13 -10 -13 -5 0 -10 -6 -10 -14 0 -8 -7 -17 -16
-20 -8 -3 -12 -10 -9 -16 3 -5 3 -10 -2 -10 -4 0 -30 -34 -57 -75 -28 -41 -54
-75 -59 -75 -4 0 -5 -4 -2 -10 3 -5 1 -10 -5 -10 -6 0 -8 -5 -5 -10 3 -6 -1
-13 -9 -16 -9 -3 -16 -11 -16 -17 0 -5 -11 -25 -26 -44 -14 -18 -22 -33 -19
-33 3 0 -6 -18 -20 -40 -14 -22 -25 -44 -25 -50 0 -5 -5 -10 -11 -10 -6 0 -9
-6 -6 -14 3 -8 3 -16 -1 -18 -4 -2 -15 -20 -24 -40 -13 -27 -14 -38 -5 -42 9
-3 8 -5 -1 -5 -7 -1 -10 -5 -7 -11 3 -5 1 -10 -5 -10 -7 0 -9 -8 -5 -21 5 -15
4 -19 -5 -14 -9 6 -9 3 0 -15 6 -12 9 -28 6 -36 -3 -7 7 -26 22 -41 15 -14 18
-20 7 -12 -18 13 -19 13 -6 -4 11 -14 17 -15 28 -5 11 9 13 8 11 -2 -2 -8 2
-14 7 -15 6 0 15 -3 21 -7 6 -4 14 -4 18 0 4 4 18 7 30 7 25 1 128 94 119 108
-3 6 -1 7 5 3 6 -3 32 25 61 66 28 40 56 80 63 88 7 8 12 18 10 23 -1 4 5 10
13 13 8 4 15 12 15 20 0 8 5 14 11 14 5 0 7 5 4 10 -3 6 -1 10 5 10 6 0 15 11
20 25 5 14 14 25 20 25 5 0 10 5 10 11 0 18 47 79 55 71 4 -4 5 1 2 10 -3 10
0 21 6 25 7 5 24 26 37 48 13 22 27 42 30 45 3 3 13 17 23 33 16 24 20 26 40
15 12 -6 81 -31 152 -55 72 -24 135 -45 140 -47 6 -2 12 -4 15 -4 3 -1 39 -15
80 -32 41 -17 75 -30 75 -30 0 1 8 -2 18 -6 12 -4 16 -12 11 -26 -5 -16 -3
-19 7 -12 12 6 12 5 0 -9 -7 -9 -10 -17 -5 -17 5 0 2 -5 -6 -10 -11 -7 -11
-10 -2 -10 22 0 -3 -34 -49 -66 -47 -32 -98 -75 -141 -116 -15 -16 -30 -28
-33 -28 -3 0 -13 -8 -23 -17 -10 -10 -47 -43 -81 -73 -93 -80 -198 -188 -286
-295 -28 -33 -54 -65 -60 -71 -5 -6 -21 -27 -35 -47 -14 -20 -28 -37 -32 -37
-5 0 -8 -7 -8 -15 0 -9 -7 -18 -15 -21 -8 -4 -15 -12 -15 -20 0 -8 -3 -14 -8
-14 -4 0 -16 -16 -26 -35 -10 -19 -26 -42 -35 -52 -27 -30 -116 -167 -113
-175 1 -5 -2 -8 -8 -8 -5 0 -19 -18 -30 -40 -11 -22 -25 -40 -31 -40 -6 0 -8
-4 -5 -8 3 -5 -6 -21 -20 -37 -13 -15 -24 -34 -24 -42 0 -7 -7 -16 -15 -19 -8
-4 -15 -12 -15 -20 0 -7 -10 -23 -22 -34 -13 -12 -23 -24 -23 -28 0 -7 -48
-73 -70 -98 -5 -6 -26 -31 -45 -54 -19 -24 -48 -58 -65 -76 -16 -17 -37 -40
-46 -50 -25 -30 -139 -135 -199 -184 -30 -25 -58 -49 -62 -55 -4 -5 -8 -7 -8
-2 0 4 -9 -1 -19 -10 -37 -33 -50 -43 -61 -43 -5 0 -10 -4 -10 -9 0 -5 -13
-14 -30 -21 -16 -7 -30 -17 -30 -22 0 -5 -4 -6 -10 -3 -5 3 -10 2 -10 -3 0 -5
-8 -12 -17 -16 -10 -3 -34 -15 -53 -26 -65 -39 -75 -44 -89 -46 -8 -2 -18 -9
-22 -16 -5 -7 -9 -10 -9 -5 0 4 -13 1 -29 -8 -17 -8 -38 -17 -48 -18 -10 -2
-25 -7 -33 -10 -8 -3 -37 -13 -65 -21 -147 -42 -163 -45 -287 -49 -37 -2 -70
-6 -73 -9 -16 -16 9 -57 49 -76 28 -14 50 -35 66 -64 13 -24 26 -45 29 -48 4
-3 17 -22 31 -42 14 -21 28 -38 33 -38 4 0 7 -5 7 -10 0 -17 138 -163 206
-218 16 -13 43 -34 59 -48 66 -53 206 -114 275 -120 14 -1 27 -3 30 -4 3 -1
33 -2 67 -2 l63 0 -17 -31 c-10 -18 -16 -35 -15 -39 1 -5 -3 -8 -10 -8 -6 0
-9 -3 -6 -6 6 -5 -7 -39 -47 -129 -7 -16 -33 -82 -58 -145 -24 -63 -48 -124
-52 -135 -5 -11 -9 -22 -10 -25 -1 -3 -6 -16 -12 -30 -5 -14 -29 -81 -53 -150
-23 -69 -45 -132 -48 -140 -3 -8 -6 -17 -7 -20 0 -3 -15 -48 -32 -100 -17 -52
-47 -156 -67 -230 -21 -74 -41 -147 -46 -162 -5 -14 -6 -29 -3 -32 4 -3 2 -6
-3 -6 -5 0 -10 -10 -11 -23 -2 -23 -10 -62 -13 -62 -1 0 -3 -9 -5 -20 -6 -36
-10 -50 -18 -62 -4 -6 -3 -15 3 -18 7 -5 8 -11 1 -19 -5 -6 -12 -25 -15 -41
-3 -17 -8 -41 -11 -55 -2 -13 -7 -40 -10 -60 -3 -20 -8 -47 -11 -60 -3 -14 -7
-41 -9 -60 -2 -19 -4 -35 -5 -35 -1 0 -3 -11 -5 -25 -1 -14 -6 -50 -9 -80 -15
-131 -20 -216 -20 -380 0 -179 4 -288 13 -304 2 -5 5 -23 6 -40 2 -29 7 -59
21 -131 3 -16 7 -42 9 -56 1 -14 7 -35 13 -45 5 -11 10 -23 11 -29 1 -12 39
-143 48 -165 4 -8 7 -17 8 -20 22 -63 114 -247 155 -310 147 -222 354 -435
494 -505 38 -20 74 -39 80 -44 6 -5 14 -10 18 -10 15 -2 83 -36 89 -44 3 -5 8
-8 10 -6 2 1 33 -11 69 -27 36 -16 68 -28 73 -26 4 1 7 -3 7 -10 0 -6 3 -8 7
-5 3 4 11 3 17 -2 11 -8 165 -57 194 -62 4 0 12 -4 17 -9 6 -4 18 -6 28 -5 9
2 17 -1 17 -6 0 -5 13 -9 28 -9 16 0 32 -3 36 -7 3 -4 14 -8 24 -9 9 -2 24 -4
32 -7 53 -14 69 -17 105 -20 22 -2 46 -6 53 -10 7 -5 12 -3 12 3 0 6 5 8 12 4
17 -11 81 -11 95 -1 6 4 14 4 17 -1 7 -12 129 7 138 22 15 22 8 43 -19 57 -43
22 -63 39 -140 118 -40 41 -73 80 -73 88 0 7 -5 13 -11 13 -5 0 -17 15 -25 32
-29 62 -45 88 -55 88 -5 0 -8 4 -7 8 4 10 -34 85 -47 94 -6 5 -3 8 7 8 9 0 20
-5 23 -10 10 -16 136 -96 168 -106 9 -4 17 -10 17 -15 0 -5 3 -8 8 -7 4 1 35
-12 69 -29 33 -17 74 -34 90 -38 15 -5 35 -10 43 -12 8 -3 26 -5 40 -7 14 -1
30 -5 35 -8 11 -6 170 -2 200 5 11 3 25 6 31 6 17 1 52 39 50 54 -1 8 -18 30
-37 48 -35 35 -99 152 -102 189 -1 11 -4 20 -7 20 -4 0 -7 6 -7 13 0 6 -4 26
-8 42 -3 17 -8 40 -10 52 -2 11 -6 29 -9 40 -5 18 -14 64 -21 113 -2 14 -7 43
-10 65 -4 22 -9 56 -10 75 -2 19 -4 35 -5 35 -1 0 -3 14 -5 30 -2 29 2 27 79
-50 86 -84 106 -102 171 -150 22 -16 44 -36 48 -42 4 -7 12 -13 17 -13 5 0 45
-24 87 -52 88 -59 358 -199 367 -190 3 3 6 0 6 -6 0 -7 6 -12 13 -12 6 0 46
-13 87 -29 78 -30 100 -38 113 -39 4 -1 20 -8 35 -16 15 -7 47 -19 72 -26 25
-7 52 -15 60 -18 8 -3 24 -7 35 -9 11 -2 27 -6 35 -10 8 -3 24 -8 35 -10 38
-8 50 -11 50 -13 0 -1 27 -7 62 -14 7 -1 15 -5 19 -8 3 -4 12 -4 20 -1 8 3 14
1 14 -4 0 -6 12 -9 28 -8 15 1 32 -1 37 -5 6 -4 26 -10 45 -13 19 -3 49 -9 65
-12 17 -3 46 -8 65 -11 19 -3 44 -8 55 -10 11 -2 36 -5 55 -8 19 -3 53 -8 75
-12 22 -4 55 -7 73 -7 17 0 32 -3 32 -6 0 -3 19 -7 43 -8 65 -3 192 -12 192
-14 0 -4 146 -8 340 -8 255 0 335 2 335 9 0 3 24 5 53 5 28 -1 57 1 62 4 6 3
33 6 60 7 28 1 50 3 50 4 0 1 17 3 39 5 21 2 59 6 85 10 25 3 62 9 81 11 19 3
46 7 60 9 14 2 39 6 55 9 17 2 57 7 90 11 89 10 159 22 245 41 14 3 36 7 50
10 14 3 32 7 40 9 8 2 15 4 15 5 0 1 13 4 30 6 16 3 32 8 35 12 6 8 40 15 40
8 0 -3 -10 -16 -22 -29 -13 -14 -36 -42 -53 -62 -16 -20 -45 -52 -62 -70 -18
-17 -33 -35 -33 -39 0 -4 -70 -77 -155 -163 -85 -85 -155 -152 -155 -147 0 4
-6 1 -12 -7 -18 -22 -113 -89 -126 -89 -6 0 -12 -4 -14 -9 -1 -5 -10 -11 -18
-13 -25 -5 -42 -27 -35 -47 11 -37 235 -162 375 -211 67 -23 82 -26 139 -36
18 -3 43 -7 55 -10 11 -2 42 -5 68 -5 29 -1 45 -6 41 -12 -4 -6 -1 -7 7 -2 8
5 55 10 104 11 87 3 188 11 194 15 1 1 11 3 22 4 11 1 23 4 28 5 4 1 12 3 17
5 6 1 12 3 15 4 3 2 19 4 35 6 17 2 40 6 53 9 12 3 30 8 40 10 29 7 136 37
152 43 8 3 20 7 25 9 6 1 24 8 40 15 17 6 36 13 43 15 6 1 31 11 55 22 123 58
157 72 161 70 2 -2 12 4 22 12 11 9 43 29 72 44 46 24 105 61 176 108 10 7 38
28 62 45 23 18 45 33 48 33 2 0 18 12 34 28 16 15 36 32 43 37 8 6 28 21 45
35 18 14 49 38 70 55 40 30 217 207 266 264 15 18 65 85 110 149 45 64 86 119
90 120 5 2 8 7 8 12 0 4 16 32 36 61 19 29 54 91 76 138 23 47 67 121 99 164
33 43 59 82 59 87 0 6 4 10 8 10 4 0 21 22 37 50 17 27 33 50 38 50 4 0 7 7 7
15 0 8 5 15 10 15 6 0 10 7 10 15 0 8 3 15 8 15 4 0 12 9 17 20 6 11 31 50 56
87 47 69 89 138 111 183 7 14 25 45 41 70 15 25 32 62 38 83 5 21 23 66 39
101 17 36 30 69 30 75 0 6 4 11 9 11 5 0 12 15 16 33 4 17 8 34 9 37 1 3 4 10
8 15 5 9 28 87 44 150 4 17 11 70 13 98 1 4 8 7 18 7 9 0 14 -3 10 -6 -5 -5
76 -74 88 -74 2 0 21 -11 41 -25 20 -14 40 -22 45 -19 5 3 9 1 9 -4 0 -12 118
-50 190 -61 70 -11 230 -5 293 11 27 7 60 22 73 35 l24 22 -37 58 c-20 32 -49
71 -63 86 -15 16 -40 54 -56 85 -16 31 -32 59 -36 60 -5 2 -8 9 -8 16 0 7 -11
34 -24 59 -14 25 -22 48 -19 51 4 3 1 6 -6 6 -7 0 -9 5 -6 10 3 6 1 10 -6 10
-7 0 -10 2 -7 6 3 3 -7 32 -23 64 -16 32 -31 71 -35 85 -3 14 -10 28 -15 31
-5 3 -7 10 -4 15 4 5 2 9 -2 9 -5 0 -15 21 -22 48 -8 26 -18 54 -22 62 -15 32
-32 78 -38 100 0 3 -19 56 -40 117 -22 62 -37 113 -34 113 3 0 0 7 -7 15 -7 8
-9 15 -5 15 4 0 2 7 -5 15 -7 8 -10 15 -7 15 3 0 0 15 -8 34 -8 18 -11 36 -8
39 3 4 1 12 -4 19 -9 12 -60 192 -69 248 -3 14 -10 38 -16 53 -6 15 -8 30 -4
34 3 3 2 11 -3 17 -5 6 -15 38 -22 71 -15 71 -16 74 -18 78 -2 1 -4 13 -6 27
-6 32 -13 65 -15 65 -2 0 -11 35 -14 55 -1 9 -5 21 -10 28 -4 6 -4 16 -1 22 3
5 2 10 -3 10 -5 0 -9 6 -10 13 0 6 -3 21 -5 32 -3 11 -8 34 -12 50 -4 17 -10
35 -14 40 -3 6 -6 15 -7 22 -3 18 -24 86 -34 108 -5 11 -21 50 -34 88 -67 180
-209 426 -300 521 -25 25 -43 47 -41 47 3 1 8 2 13 3 16 4 60 31 102 65 25 20
49 39 55 44 10 8 24 19 95 77 133 109 253 253 326 390 16 30 32 57 36 60 9 7
32 99 26 105 -2 3 -65 7 -139 10 -251 9 -290 13 -394 45 -51 15 -199 84 -215
100 -4 4 -39 24 -95 54 -11 6 -23 16 -27 21 -4 6 -8 6 -8 2 0 -4 -10 1 -22 13
-12 11 -28 20 -35 20 -7 0 -13 5 -13 10 0 6 -6 10 -12 10 -7 0 -26 12 -43 26
-16 14 -42 33 -57 42 -16 9 -28 20 -28 24 0 4 -6 8 -12 8 -7 0 -29 15 -49 33
-20 17 -56 48 -80 67 -74 60 -148 129 -314 295 -149 148 -189 195 -165 195 11
0 74 60 63 60 -4 0 0 5 10 11 9 5 17 15 17 20 0 12 26 40 32 34 2 -2 5 5 5 17
1 12 6 24 11 27 14 9 44 71 35 71 -5 0 -2 4 6 9 8 5 16 20 18 32 2 13 7 26 11
29 4 3 9 12 11 20 61 242 68 286 65 460 -2 198 -18 364 -36 388 -6 6 -8 12 -5
12 3 0 -1 23 -9 52 -9 28 -17 59 -19 69 -5 25 -70 154 -85 169 -3 3 -17 23
-32 45 -55 80 -181 156 -264 157 -86 2 -198 -30 -254 -70 -49 -36 -81 -72 -75
-83 3 -5 -1 -6 -9 -3 -9 3 -16 12 -16 19 0 10 -111 151 -131 165 -11 8 -91 74
-103 85 -11 10 -71 50 -116 77 -34 20 -117 48 -124 40 -3 -3 -6 0 -6 6 0 6
-16 16 -35 22 -19 6 -35 16 -35 22 0 6 -3 8 -7 5 -3 -4 -12 -2 -20 4 -7 6 -13
8 -13 4 0 -4 -6 -3 -12 2 -21 16 -125 52 -132 46 -3 -4 -6 -1 -6 6 0 7 -6 11
-14 8 -7 -3 -17 -2 -22 3 -5 5 -23 11 -41 13 -17 3 -36 8 -41 11 -4 3 -28 6
-51 7 -23 2 -44 5 -46 8 -10 18 -202 -4 -268 -30 -102 -40 -111 -100 -25 -182
27 -27 52 -46 55 -43 3 3 13 1 23 -4 9 -5 29 -12 43 -15 15 -3 38 -7 52 -10
83 -17 361 -163 373 -196 2 -5 9 -9 16 -9 7 0 24 -13 38 -29 15 -16 30 -30 35
-32 22 -9 81 -100 88 -136 4 -21 6 -38 4 -38 -1 0 3 -10 10 -22 6 -13 8 -23 4
-23 -4 0 -8 -17 -9 -37 -1 -55 -6 -73 -37 -126 -29 -48 -41 -57 -50 -34 -9 25
-187 48 -187 25 0 -4 -8 -8 -19 -8 -10 0 -24 -7 -31 -15 -7 -8 -19 -15 -26
-15 -8 0 -14 -8 -14 -17 0 -9 -3 -13 -7 -10 -8 9 -44 -44 -37 -55 3 -4 0 -8
-6 -8 -7 0 -10 -6 -7 -14 7 -17 -53 -12 -64 6 -5 7 -11 9 -15 6 -4 -4 -16 -2
-28 4 -11 7 -23 13 -26 13 -3 1 -25 7 -50 15 -25 7 -48 13 -52 12 -5 -1 -8 2
-8 8 0 5 -7 7 -15 4 -8 -4 -15 -1 -15 7 0 7 -3 9 -7 6 -3 -4 -12 -2 -19 4 -10
8 -7 17 17 40 16 16 27 29 24 29 -4 0 1 7 9 16 9 8 16 22 16 30 0 8 5 12 10 9
6 -3 10 1 10 9 0 9 5 16 11 16 5 0 8 4 5 9 -3 5 1 12 10 15 8 3 12 10 9 16 -3
5 -1 10 4 10 6 0 11 9 11 20 0 11 5 20 10 20 6 0 10 8 10 18 0 10 3 22 7 26 4
3 8 33 9 66 2 53 0 62 -27 89 -16 17 -35 31 -42 32 -6 0 -21 2 -32 4 -11 3
-33 0 -50 -5 -16 -6 -34 -11 -40 -12 -5 -1 -21 -12 -35 -25 -14 -13 -28 -23
-32 -23 -5 0 -8 -7 -8 -16 0 -8 -4 -12 -10 -9 -5 3 -10 1 -10 -5 0 -6 -25 -35
-56 -65 -30 -30 -53 -55 -51 -55 3 0 -14 -20 -37 -44 -22 -24 -57 -61 -77 -83
-37 -40 -46 -42 -104 -30 -33 7 -71 15 -125 24 -19 3 -38 10 -41 15 -3 4 -4
42 -3 82 6 178 -50 258 -194 277 -4 1 -10 0 -14 -1 -5 -1 -11 -3 -15 -5 -25
-7 -42 -18 -38 -25 3 -4 -2 -10 -10 -14 -8 -3 -15 -13 -15 -21 0 -9 -4 -14 -8
-11 -9 5 -12 -5 -15 -53 -1 -16 -5 -27 -9 -24 -5 2 -8 -6 -7 -19 0 -57 -12
-143 -23 -149 -7 -4 -20 -3 -29 2 -11 6 -20 5 -24 -1 -3 -5 -15 -6 -28 -1 -24
9 -506 6 -547 -3 -14 -3 -42 -7 -62 -8 -21 -1 -38 -6 -38 -11 0 -5 -6 -5 -13
2 -8 6 -17 7 -21 3 -4 -4 -11 -7 -14 -8 -4 0 -34 -4 -67 -9 -33 -5 -66 -7 -72
-6 -7 1 -13 -2 -13 -8 0 -5 -8 -7 -18 -4 -20 5 -28 73 -8 73 7 0 7 3 -2 8 -16
11 -9 57 9 57 8 1 17 -4 21 -10 5 -6 8 -5 8 3 0 7 5 10 11 6 10 -6 45 -9 179
-17 25 -1 51 -6 58 -10 7 -5 12 -3 12 5 0 9 3 9 10 -2 9 -13 10 -13 10 0 0 9
3 11 8 5 4 -6 23 -12 42 -13 44 -3 91 -11 102 -18 4 -3 8 1 8 8 0 8 3 9 8 3 8
-12 94 -16 87 -4 -3 4 6 6 20 3 14 -2 25 0 25 6 0 5 3 9 8 8 13 -4 72 36 72
49 0 6 5 15 12 19 7 5 8 3 3 -6 -5 -8 -4 -11 2 -7 6 4 9 18 8 32 -2 14 0 25 4
25 5 0 8 13 7 30 -1 16 -5 30 -9 30 -5 0 -6 4 -3 9 3 5 -3 20 -14 34 -11 14
-20 29 -20 35 0 24 -133 56 -285 68 -27 2 -81 6 -120 10 -38 3 -94 7 -122 7
-29 1 -53 4 -53 7 0 3 -9 6 -20 6 -11 0 -20 -4 -20 -9 0 -5 -6 -5 -12 0 -7 6
-38 11 -68 12 -105 5 -118 6 -125 13 -4 4 -17 3 -30 -2 -13 -5 -26 -6 -30 -2
-3 4 -28 7 -54 8 -26 0 -51 2 -57 5 -5 2 -38 4 -74 4 -36 0 -68 5 -72 10 -5 6
-8 5 -8 -2 0 -9 -7 -10 -22 -5 -13 4 -69 7 -125 7 -56 0 -99 3 -95 7 12 12
185 76 225 83 20 4 37 11 37 16 0 4 9 6 20 4 11 -2 20 -1 20 3 0 4 8 8 18 9
18 2 37 5 143 28 42 9 109 101 109 149 0 23 -22 66 -33 66 -6 0 -8 3 -4 6 8 8
-54 40 -92 49 -62 13 -112 18 -204 20 -53 1 -99 0 -100 -1z m-324 -638 c29
-29 55 -44 90 -52 4 -1 10 -3 15 -4 4 -1 10 -2 15 -1 4 0 7 -3 7 -9 0 -5 3 -9
8 -8 4 1 25 -2 47 -7 22 -4 45 -7 52 -6 6 1 14 -3 18 -8 3 -6 12 -8 20 -4 9 3
21 1 28 -4 6 -4 31 -8 55 -8 23 0 42 -2 42 -5 0 -3 17 -6 38 -7 40 -2 104 -9
112 -13 3 -1 14 -3 25 -4 21 -1 22 -8 10 -76 -3 -19 -8 -48 -10 -65 -2 -16 -6
-39 -9 -50 -2 -11 -5 -25 -5 -32 -1 -10 -43 -29 -84 -37 -13 -3 -25 -8 -104
-38 -29 -11 -56 -20 -60 -20 -4 0 -17 -5 -28 -11 -11 -6 -23 -10 -27 -9 -5 1
-8 -3 -8 -9 0 -5 -4 -8 -9 -4 -5 3 -12 1 -15 -4 -4 -5 -24 -12 -45 -16 -32 -5
-48 -1 -97 26 -33 18 -60 37 -62 41 -2 4 -9 8 -15 8 -23 0 -147 116 -147 137
0 7 -4 13 -9 13 -11 0 -25 53 -24 91 1 51 48 156 75 167 4 2 8 10 8 18 0 8 7
14 15 14 8 0 15 7 15 15 0 25 27 17 63 -19z m4403 -102 c19 -15 34 -32 34 -39
0 -7 6 -15 14 -18 16 -6 77 -128 100 -200 9 -26 19 -71 23 -100 14 -99 7 -355
-11 -409 -3 -7 -7 -26 -10 -43 -9 -52 -41 -160 -48 -163 -5 -2 -8 -14 -8 -26
0 -13 -9 -35 -21 -50 -13 -17 -16 -26 -8 -26 7 0 3 -9 -9 -20 -12 -12 -22 -29
-22 -39 0 -11 -7 -21 -15 -25 -8 -3 -15 -13 -15 -21 0 -9 -4 -13 -10 -10 -5 3
-10 1 -10 -5 0 -13 -24 -40 -36 -40 -3 0 -29 21 -56 48 -28 26 -65 62 -84 80
-19 17 -38 32 -44 32 -5 0 -12 9 -15 20 -3 11 -11 20 -17 20 -6 0 -8 3 -5 6 3
4 1 16 -5 28 -7 11 -11 29 -9 39 1 9 -2 17 -7 17 -5 0 -8 11 -7 25 2 14 -2 25
-8 25 -7 0 -5 5 3 10 8 5 11 10 5 10 -10 0 -17 44 -14 93 0 6 -2 22 -5 35 -3
13 0 22 7 22 8 0 9 3 1 8 -11 8 -12 51 0 70 3 6 2 13 -4 17 -7 4 -6 13 1 27 8
15 8 19 0 14 -6 -4 0 19 15 51 14 32 27 63 28 68 2 6 8 30 15 55 7 25 15 63
17 85 3 22 6 54 8 70 2 17 4 40 5 53 0 13 5 21 10 17 6 -3 8 4 6 15 -2 11 1
20 7 20 6 0 8 3 5 7 -4 3 0 15 10 25 9 10 13 18 10 18 -4 0 0 8 8 18 8 9 28
36 44 59 26 36 39 44 84 52 5 0 24 -11 43 -25z m-5262 -270 c6 -65 30 -153 52
-196 17 -32 12 -33 -45 -13 -22 8 -41 12 -41 9 0 -2 -13 2 -29 10 -16 9 -31
12 -35 9 -3 -4 -6 -1 -6 5 0 7 -3 11 -7 11 -5 -1 -18 -1 -31 0 -23 1 -23 1 10
49 18 26 40 56 50 66 9 10 15 22 13 26 -3 5 1 10 8 13 8 3 22 22 31 42 10 20
19 35 21 33 2 -2 6 -30 9 -64z m2518 -28 c7 4 8 2 4 -5 -9 -13 -26 -5 -25 12
0 9 2 8 6 -1 2 -6 10 -9 15 -6z m-328 -8 c-3 -4 -11 -5 -19 -1 -21 7 -19 12 4
10 11 0 18 -5 15 -9z m483 -3 c0 -8 -4 -12 -9 -9 -5 3 -6 10 -3 15 9 13 12 11
12 -6z m-637 1 c0 -3 -4 -8 -10 -11 -5 -3 -10 -1 -10 4 0 6 5 11 10 11 6 0 10
-2 10 -4z m-120 -10 c0 -3 -4 -8 -10 -11 -5 -3 -10 -1 -10 4 0 6 5 11 10 11 6
0 10 -2 10 -4z m-567 -111 c-3 -9 -8 -14 -10 -11 -3 3 -2 9 2 15 9 16 15 13 8
-4z m-98 -76 c-3 -4 -12 -6 -20 -3 -8 4 -13 10 -10 15 3 4 12 6 20 3 8 -4 13
-10 10 -15z m60 -19 c3 -6 -1 -7 -9 -4 -18 7 -21 14 -7 14 6 0 13 -4 16 -10z
m2535 -41 c0 -8 -81 -32 -87 -26 -2 3 9 8 26 12 34 7 38 14 19 33 -9 9 -5 9
15 0 15 -7 27 -16 27 -19z m-2090 -59 c0 -5 -2 -10 -4 -10 -3 0 -8 5 -11 10
-3 6 -1 10 4 10 6 0 11 -4 11 -10z m1900 6 c0 -3 -4 -8 -10 -11 -5 -3 -10 -1
-10 4 0 6 5 11 10 11 6 0 10 -2 10 -4z m-1735 -36 c3 -6 -1 -7 -9 -4 -18 7
-21 14 -7 14 6 0 13 -4 16 -10z m45 6 c0 -2 -7 -7 -16 -10 -8 -3 -12 -2 -9 4
6 10 25 14 25 6z m107 -22 c-3 -3 -12 -4 -19 -1 -8 3 -5 6 6 6 11 1 17 -2 13
-5z m133 -9 c0 -7 -30 -13 -34 -7 -3 4 4 9 15 9 10 1 19 0 19 -2z m235 -25 c3
-6 -1 -7 -9 -4 -18 7 -21 14 -7 14 6 0 13 -4 16 -10z m95 6 c0 -3 -4 -8 -10
-11 -5 -3 -10 -1 -10 4 0 6 5 11 10 11 6 0 10 -2 10 -4z m40 -6 c0 -5 -2 -10
-4 -10 -3 0 -8 5 -11 10 -3 6 -1 10 4 10 6 0 11 -4 11 -10z m1465 -480 c-3 -5
-12 -10 -18 -10 -7 0 -6 4 3 10 19 12 23 12 15 0z m-3945 -13 c0 -2 -10 -12
-21 -23 -22 -19 -22 -19 -8 4 12 19 29 30 29 19z m4590 -63 c0 -7 -78 35 -85
45 -3 6 15 -2 40 -15 25 -14 45 -28 45 -30z m-4679 -21 c-12 -20 -14 -14 -5
12 4 9 9 14 11 11 3 -2 0 -13 -6 -23z m4729 -9 c0 -2 -9 0 -20 6 -11 6 -20 13
-20 16 0 2 9 0 20 -6 11 -6 20 -13 20 -16z m-146 0 c3 -8 2 -12 -4 -9 -6 3
-10 10 -10 16 0 14 7 11 14 -7z m241 -62 c-3 -3 -11 0 -18 7 -9 10 -8 11 6 5
10 -3 15 -9 12 -12z m-50 -82 c10 -11 16 -20 13 -20 -3 0 -13 9 -23 20 -10 11
-16 20 -13 20 3 0 13 -9 23 -20z m96 -77 c8 -10 -5 -3 -28 16 -24 18 -43 35
-43 38 0 7 55 -34 71 -54z m150 10 c13 -16 12 -17 -3 -4 -10 7 -18 15 -18 17
0 8 8 3 21 -13z m-5243 -13 c-7 -11 -17 -20 -22 -20 -5 0 -1 9 9 20 10 11 20
20 22 20 2 0 -2 -9 -9 -20z m5577 0 c10 -11 16 -20 13 -20 -3 0 -13 9 -23 20
-10 11 -16 20 -13 20 3 0 13 -9 23 -20z m-440 -39 c-6 -5 -25 10 -25 20 0 5 6
4 14 -3 8 -7 12 -15 11 -17z m-5165 5 c0 -2 -8 -10 -17 -17 -16 -13 -17 -12
-4 4 13 16 21 21 21 13z m5660 -31 c14 -19 14 -19 -2 -6 -10 7 -18 18 -18 24
0 6 1 8 3 6 1 -2 9 -13 17 -24z m-430 -22 c0 -7 -39 17 -46 28 -3 6 5 3 20 -6
14 -10 26 -19 26 -22z m-5299 -26 c-10 -9 -11 -8 -5 6 3 10 9 15 12 12 3 -3 0
-11 -7 -18z m5764 5 c-3 -3 -11 0 -18 7 -9 10 -8 11 6 5 10 -3 15 -9 12 -12z
m-385 -57 c38 -36 66 -65 62 -65 -9 1 -146 130 -137 130 3 0 37 -29 75 -65z
m105 55 c3 -5 1 -10 -4 -10 -6 0 -11 5 -11 10 0 6 2 10 4 10 3 0 8 -4 11 -10z
m-5555 -99 c0 -6 -4 -12 -8 -15 -5 -3 -9 1 -9 9 0 8 4 15 9 15 4 0 8 -4 8 -9z
m5941 -18 c13 -16 12 -17 -3 -4 -10 7 -18 15 -18 17 0 8 8 3 21 -13z m-348
-83 c36 -38 63 -70 59 -70 -5 0 -36 32 -71 70 -34 39 -60 70 -58 70 2 0 33
-31 70 -70z m406 25 c18 -19 26 -33 18 -30 -12 5 -63 65 -54 65 1 0 17 -16 36
-35z m-6073 -23 c-17 -16 -18 -16 -5 5 7 12 15 20 18 17 3 -2 -3 -12 -13 -22z
m6129 -32 c3 -6 -1 -7 -9 -4 -18 7 -21 14 -7 14 6 0 13 -4 16 -10z m-6177 -40
c-7 -10 -14 -17 -17 -15 -4 4 18 35 25 35 2 0 -1 -9 -8 -20z m6217 0 c10 -11
16 -20 13 -20 -3 0 -13 9 -23 20 -10 11 -16 20 -13 20 3 0 13 -9 23 -20z
m-415 -30 c6 -11 8 -20 6 -20 -3 0 -10 9 -16 20 -6 11 -8 20 -6 20 3 0 10 -9
16 -20z m480 -35 c19 -19 32 -35 29 -35 -3 0 -20 16 -39 35 -19 19 -32 35 -29
35 3 0 20 -16 39 -35z m-446 -1 c3 -8 2 -12 -4 -9 -6 3 -10 10 -10 16 0 14 7
11 14 -7z m27 -41 c13 -16 12 -17 -3 -4 -10 7 -18 15 -18 17 0 8 8 3 21 -13z
m39 -48 c0 -5 -5 -3 -10 5 -5 8 -10 20 -10 25 0 6 5 3 10 -5 5 -8 10 -19 10
-25z m-6024 -33 c-17 -16 -18 -16 -5 5 7 12 15 20 18 17 3 -2 -3 -12 -13 -22z
m6054 3 c14 -19 14 -19 -2 -6 -10 7 -18 18 -18 24 0 6 1 8 3 6 1 -2 9 -13 17
-24z m485 5 c10 -11 16 -20 13 -20 -3 0 -13 9 -23 20 -10 11 -16 20 -13 20 3
0 13 -9 23 -20z m-2256 -34 c-2 -2 -13 8 -23 22 l-19 27 24 -22 c12 -12 21
-24 18 -27z m60 0 c-3 -3 -11 5 -18 17 -13 21 -12 21 5 5 10 -10 16 -20 13
-22z m2250 -20 c-3 -3 -11 5 -18 17 -13 21 -12 21 5 5 10 -10 16 -20 13 -22z
m-499 -8 c15 -21 17 -28 6 -19 -16 13 -41 51 -33 51 2 0 14 -15 27 -32z m531
-5 c13 -16 12 -17 -3 -4 -10 7 -18 15 -18 17 0 8 8 3 21 -13z m-6542 -63 c-23
-24 -37 -35 -31 -24 12 23 63 76 69 71 1 -2 -16 -23 -38 -47z m76 40 c3 -5 1
-10 -4 -10 -6 0 -11 5 -11 10 0 6 2 10 4 10 3 0 8 -4 11 -10z m4160 0 c3 -5 1
-10 -4 -10 -6 0 -11 5 -11 10 0 6 2 10 4 10 3 0 8 -4 11 -10z m-4172 -35 c-3
-9 -8 -14 -10 -11 -3 3 -2 9 2 15 9 16 15 13 8 -4z m6558 -2 c13 -16 12 -17
-3 -4 -10 7 -18 15 -18 17 0 8 8 3 21 -13z m-6783 -13 c-7 -10 -14 -18 -15
-16 -6 6 9 36 18 36 5 0 4 -9 -3 -20z m4417 2 c-3 -3 -11 0 -18 7 -9 10 -8 11
6 5 10 -3 15 -9 12 -12z m-3245 -12 c-8 -5 -19 -10 -25 -10 -5 0 -3 5 5 10 8
5 20 10 25 10 6 0 3 -5 -5 -10z m690 0 c0 -5 -5 -10 -11 -10 -5 0 -7 5 -4 10
3 6 8 10 11 10 2 0 4 -4 4 -10z m2651 -7 c13 -16 12 -17 -3 -4 -10 7 -18 15
-18 17 0 8 8 3 21 -13z m1729 7 c0 -5 -2 -10 -4 -10 -3 0 -8 5 -11 10 -3 6 -1
10 4 10 6 0 11 -4 11 -10z m601 -17 c13 -16 12 -17 -3 -4 -10 7 -18 15 -18 17
0 8 8 3 21 -13z m-5718 -8 c-3 -9 -8 -14 -10 -11 -3 3 -2 9 2 15 9 16 15 13 8
-4z m-1143 1 c0 -2 -8 -10 -17 -17 -16 -13 -17 -12 -4 4 13 16 21 21 21 13z
m220 -20 c0 -2 -8 -10 -17 -17 -16 -13 -17 -12 -4 4 13 16 21 21 21 13z m6705
-14 c-3 -3 -11 0 -18 7 -9 10 -8 11 6 5 10 -3 15 -9 12 -12z m-5854 -37 c-17
-20 -31 -33 -31 -30 0 10 54 74 58 70 3 -2 -9 -20 -27 -40z m139 41 c0 -2 -7
-7 -16 -10 -8 -3 -12 -2 -9 4 6 10 25 14 25 6z m687 -18 c-3 -8 -6 -5 -6 6 -1
11 2 17 5 13 3 -3 4 -12 1 -19z m5078 0 c5 4 5 1 1 -6 -6 -10 -11 -10 -22 -1
-8 6 -14 14 -14 16 0 3 6 0 13 -6 8 -6 18 -7 22 -3z m-2401 -14 c3 -8 2 -12
-4 -9 -6 3 -10 10 -10 16 0 14 7 11 14 -7z m1744 -19 c-3 -3 -9 2 -12 12 -6
14 -5 15 5 6 7 -7 10 -15 7 -18z m-4495 -10 c-3 -9 -8 -14 -10 -11 -3 3 -2 9
2 15 9 16 15 13 8 -4z m-1883 1 c0 -3 -4 -8 -10 -11 -5 -3 -10 -1 -10 4 0 6 5
11 10 11 6 0 10 -2 10 -4z m5486 -17 c19 -22 19 -22 -3 -8 -13 8 -23 17 -23
21 0 12 6 9 26 -13z m-4286 7 c0 -2 -8 -10 -17 -17 -16 -13 -17 -12 -4 4 13
16 21 21 21 13z m-982 -26 c-7 -10 -14 -17 -17 -15 -4 4 18 35 25 35 2 0 -1
-9 -8 -20z m-255 -5 c-3 -9 -8 -14 -10 -11 -3 3 -2 9 2 15 9 16 15 13 8 -4z
m147 1 c0 -2 -8 -10 -17 -17 -16 -13 -17 -12 -4 4 13 16 21 21 21 13z m958
-16 c-7 -10 -14 -17 -17 -15 -4 4 18 35 25 35 2 0 -1 -9 -8 -20z m5357 10 c3
-6 -1 -7 -9 -4 -18 7 -21 14 -7 14 6 0 13 -4 16 -10z m-5275 -20 c-6 -11 -13
-20 -16 -20 -2 0 0 9 6 20 6 11 13 20 16 20 2 0 0 -9 -6 -20z m4390 -15 c13
-14 21 -25 18 -25 -2 0 -15 11 -28 25 -13 14 -21 25 -18 25 2 0 15 -11 28 -25z
m-5467 -10 c-3 -9 -8 -14 -10 -11 -3 3 -2 9 2 15 9 16 15 13 8 -4z m967 8 c-1
-5 -12 -21 -26 -38 -26 -30 -23 -21 6 23 16 23 20 27 20 15z m3675 -29 c9 -15
12 -23 6 -20 -11 7 -35 46 -28 46 3 0 12 -12 22 -26z m1746 -1 c13 -16 12 -17
-3 -4 -10 7 -18 15 -18 17 0 8 8 3 21 -13z m-6281 3 c0 -2 -8 -10 -17 -17 -16
-13 -17 -12 -4 4 13 16 21 21 21 13z m7255 -16 c3 -5 1 -10 -4 -10 -6 0 -11 5
-11 10 0 6 2 10 4 10 3 0 8 -4 11 -10z m-6328 -16 c-3 -3 -12 -4 -19 -1 -8 3
-5 6 6 6 11 1 17 -2 13 -5z m4494 -11 c13 -16 12 -17 -3 -4 -10 7 -18 15 -18
17 0 8 8 3 21 -13z m880 0 c13 -16 12 -17 -3 -4 -10 7 -18 15 -18 17 0 8 8 3
21 -13z m-6611 -23 c-6 -11 -13 -20 -16 -20 -2 0 0 9 6 20 6 11 13 20 16 20 2
0 0 -9 -6 -20z m1096 -8 c-17 -16 -18 -16 -5 5 7 12 15 20 18 17 3 -2 -3 -12
-13 -22z m94 -16 c0 -3 -4 -8 -10 -11 -5 -3 -10 -1 -10 4 0 6 5 11 10 11 6 0
10 -2 10 -4z m4599 -27 c11 -19 12 -21 0 -9 -8 8 -21 21 -29 29 -12 11 -12 12
-1 9 8 -2 21 -15 30 -29z m871 -9 c6 -11 8 -20 6 -20 -3 0 -10 9 -16 20 -6 11
-8 20 -6 20 3 0 10 -9 16 -20z m-1749 -7 c13 -16 12 -17 -3 -4 -10 7 -18 15
-18 17 0 8 8 3 21 -13z m-3867 -18 c-9 -14 -18 -25 -21 -25 -5 0 5 18 20 38
17 22 18 13 1 -13z m-824 -5 c0 -5 -5 -10 -11 -10 -5 0 -7 5 -4 10 3 6 8 10
11 10 2 0 4 -4 4 -10z m-300 -13 c0 -2 -10 -12 -22 -23 l-23 -19 19 23 c18 21
26 27 26 19z m6784 -33 c3 -8 2 -12 -4 -9 -6 3 -10 10 -10 16 0 14 7 11 14 -7z
m-6892 -85 c-34 -33 -62 -56 -62 -53 0 10 114 121 120 116 3 -2 -23 -30 -58
-63z m368 67 c0 -2 -8 -10 -17 -17 -16 -13 -17 -12 -4 4 13 16 21 21 21 13z
m813 -11 c-3 -9 -8 -14 -10 -11 -3 3 -2 9 2 15 9 16 15 13 8 -4z m3961 -1 c3
-8 2 -12 -4 -9 -6 3 -10 10 -10 16 0 14 7 11 14 -7z m600 0 c3 -8 2 -12 -4 -9
-6 3 -10 10 -10 16 0 14 7 11 14 -7z m-4444 2 c0 -2 -7 -7 -16 -10 -8 -3 -12
-2 -9 4 6 10 25 14 25 6z m897 -28 c-3 -8 -6 -5 -6 6 -1 11 2 17 5 13 3 -3 4
-12 1 -19z m-97 2 c0 -5 -5 -10 -11 -10 -5 0 -7 5 -4 10 3 6 8 10 11 10 2 0 4
-4 4 -10z m4079 -57 c2 -2 2 -5 0 -8 -3 -2 -23 14 -45 38 l-39 42 40 -35 c22
-19 42 -36 44 -37z m-4916 22 c-9 -19 -18 -33 -21 -31 -4 5 26 66 33 66 3 0
-3 -16 -12 -35z m5675 -10 c-3 -3 -9 2 -12 12 -6 14 -5 15 5 6 7 -7 10 -15 7
-18z m-1743 -35 c3 -5 1 -10 -4 -10 -6 0 -11 5 -11 10 0 6 2 10 4 10 3 0 8 -4
11 -10z m1773 -25 c-3 -3 -9 2 -12 12 -6 14 -5 15 5 6 7 -7 10 -15 7 -18z
m-7038 11 c0 -2 -8 -10 -17 -17 -16 -13 -17 -12 -4 4 13 16 21 21 21 13z
m2141 -19 c-10 -9 -11 -8 -5 6 3 10 9 15 12 12 3 -3 0 -11 -7 -18z m4184 -7
c3 -5 1 -10 -4 -10 -6 0 -11 5 -11 10 0 6 2 10 4 10 3 0 8 -4 11 -10z m-4182
-25 c-3 -9 -8 -14 -10 -11 -3 3 -2 9 2 15 9 16 15 13 8 -4z m1731 -16 c8 -9 6
-9 -11 0 -14 7 -24 8 -28 1 -3 -5 -12 -10 -18 -9 -9 0 -8 2 1 6 6 2 10 9 7 13
-8 13 37 3 49 -11z m1949 6 c-3 -9 -8 -14 -10 -11 -3 3 -2 9 2 15 9 16 15 13
8 -4z m581 -24 c-2 -3 -12 3 -22 13 -16 17 -16 18 5 5 12 -7 20 -15 17 -18z
m674 4 c-3 -3 -9 2 -12 12 -6 14 -5 15 5 6 7 -7 10 -15 7 -18z m-7197 -28
c-10 -9 -11 -8 -5 6 3 10 9 15 12 12 3 -3 0 -11 -7 -18z m1260 -14 c-12 -20
-14 -14 -5 12 4 9 9 14 11 11 3 -2 0 -13 -6 -23z m4672 12 c-3 -9 -8 -14 -10
-11 -3 3 -2 9 2 15 9 16 15 13 8 -4z m-5510 -10 c-3 -9 -8 -14 -10 -11 -3 3
-2 9 2 15 9 16 15 13 8 -4z m-443 1 c0 -2 -8 -10 -17 -17 -16 -13 -17 -12 -4
4 13 16 21 21 21 13z m3940 0 c0 -2 -8 -10 -17 -17 -16 -13 -17 -12 -4 4 13
16 21 21 21 13z m1525 -26 c3 -5 1 -10 -4 -10 -6 0 -11 5 -11 10 0 6 2 10 4
10 3 0 8 -4 11 -10z m1180 -8 c-3 -3 -11 0 -18 7 -9 10 -8 11 6 5 10 -3 15 -9
12 -12z m-6700 -11 c-3 -6 -11 -11 -16 -11 -5 0 -4 6 3 14 14 16 24 13 13 -3z
m1322 4 c0 -8 -4 -15 -9 -15 -10 0 -11 14 -1 23 9 10 10 9 10 -8z m2803 -5 c0
-5 -2 -10 -4 -10 -3 0 -8 5 -11 10 -3 6 -1 10 4 10 6 0 11 -4 11 -10z m2640
-14 c0 -2 -9 -2 -20 1 -11 3 -20 9 -20 15 0 5 9 4 20 -2 11 -6 20 -12 20 -14z
m560 -11 c0 -5 -5 -3 -10 5 -5 8 -10 20 -10 25 0 6 5 3 10 -5 5 -8 10 -19 10
-25z m-7361 2 c-2 -1 -13 -9 -24 -17 -19 -14 -19 -14 -6 3 7 9 18 17 24 17 6
0 8 -1 6 -3z m6485 -38 c-3 -5 1 -6 9 -4 16 7 46 -24 52 -55 3 -17 1 -20 -12
-16 -14 6 -14 4 -2 -10 11 -14 11 -18 -4 -29 -9 -6 -14 -15 -11 -18 6 -6 -49
-17 -78 -15 -30 2 -60 43 -60 81 0 36 27 77 50 77 7 0 11 4 7 10 -3 5 7 5 25
-1 16 -6 27 -15 24 -20z m890 5 c3 -8 2 -12 -4 -9 -6 3 -10 10 -10 16 0 14 7
11 14 -7z m-5933 -17 c-10 -9 -11 -8 -5 6 3 10 9 15 12 12 3 -3 0 -11 -7 -18z
m2754 -3 c9 -15 12 -23 6 -20 -11 7 -35 46 -28 46 3 0 12 -12 22 -26z m2694
12 c7 -8 23 -17 36 -20 14 -4 25 -10 25 -15 0 -9 -20 0 -83 36 -17 10 -18 13
-6 13 9 0 22 -6 28 -14z m-6970 -9 c-2 -1 -13 -9 -24 -17 -19 -14 -19 -14 -6
3 7 9 18 17 24 17 6 0 8 -1 6 -3z m5675 -13 c3 -8 2 -12 -4 -9 -6 3 -10 10
-10 16 0 14 7 11 14 -7z m1800 -10 c3 -8 2 -12 -4 -9 -6 3 -10 10 -10 16 0 14
7 11 14 -7z m-6074 -4 c0 -5 -5 -10 -11 -10 -5 0 -7 5 -4 10 3 6 8 10 11 10 2
0 4 -4 4 -10z m2756 -13 c1 -9 -4 -17 -11 -17 -8 0 -13 9 -12 20 2 24 19 21
23 -3z m1937 -2 c-3 -9 -8 -14 -10 -11 -3 3 -2 9 2 15 9 16 15 13 8 -4z m977
5 c8 -5 11 -10 5 -10 -5 0 -17 5 -25 10 -8 5 -10 10 -5 10 6 0 17 -5 25 -10z
m-5560 -10 c0 -5 -5 -10 -11 -10 -5 0 -7 5 -4 10 3 6 8 10 11 10 2 0 4 -4 4
-10z m919 -7 c-7 -10 -14 -20 -16 -22 -1 -2 -1 6 0 18 1 11 8 21 15 21 12 0
12 -3 1 -17z m-1046 -8 c-3 -9 -8 -14 -10 -11 -3 3 -2 9 2 15 9 16 15 13 8 -4z
m2932 -5 c3 -5 1 -10 -4 -10 -6 0 -11 5 -11 10 0 6 2 10 4 10 3 0 8 -4 11 -10z
m1385 -25 c0 -5 -5 -3 -10 5 -5 8 -10 20 -10 25 0 6 5 3 10 -5 5 -8 10 -19 10
-25z m1500 7 c0 -15 -2 -15 -10 -2 -13 20 -13 33 0 25 6 -3 10 -14 10 -23z
m-7320 13 c0 -2 -10 -9 -22 -15 -22 -11 -22 -10 -4 4 21 17 26 19 26 11z
m6203 -15 c-3 -11 -10 -23 -16 -27 -5 -3 -8 -2 -5 3 3 5 8 17 11 27 9 24 16
22 10 -3z m-3548 -30 c1 -30 -7 -32 -11 -3 -2 14 3 33 9 33 1 0 2 -13 2 -30z
m4985 -14 c0 -12 -5 -7 -19 24 -11 24 -11 24 3 6 9 -11 16 -24 16 -30z m-3140
-41 c0 -5 -9 5 -20 23 -26 42 -26 56 0 17 11 -16 20 -34 20 -40z m3520 39 c0
-8 -5 -12 -10 -9 -6 4 -8 11 -5 16 9 14 15 11 15 -7z m-7420 -12 c0 -5 -7 -17
-15 -28 -14 -18 -14 -17 -4 9 12 27 19 34 19 19z m871 -35 c-10 -9 -11 -8 -5
6 3 10 9 15 12 12 3 -3 0 -11 -7 -18z m4700 0 c-10 -9 -11 -8 -5 6 3 10 9 15
12 12 3 -3 0 -11 -7 -18z m1487 -2 c-3 -3 -9 2 -12 12 -6 14 -5 15 5 6 7 -7
10 -15 7 -18z m-5111 1 c0 -8 -6 -12 -15 -9 -11 5 -11 7 0 14 7 5 13 9 14 9 0
0 1 -6 1 -14z m-2827 -6 c0 -5 -2 -10 -4 -10 -3 0 -8 5 -11 10 -3 6 -1 10 4
10 6 0 11 -4 11 -10z m841 -33 c-10 -9 -11 -8 -5 6 3 10 9 15 12 12 3 -3 0
-11 -7 -18z m900 0 c-10 -9 -11 -8 -5 6 3 10 9 15 12 12 3 -3 0 -11 -7 -18z
m3089 -2 c13 -14 21 -25 18 -25 -2 0 -15 11 -28 25 -13 14 -21 25 -18 25 2 0
15 -11 28 -25z m-5080 -5 c-19 -13 -30 -13 -30 0 0 6 10 10 23 10 18 0 19 -2
7 -10z m1981 -33 c-10 -9 -11 -8 -5 6 3 10 9 15 12 12 3 -3 0 -11 -7 -18z
m4690 10 c-6 -8 -8 -17 -4 -20 3 -4 1 -7 -5 -7 -15 0 -15 13 0 28 16 16 23 15
9 -1z m990 -10 c-10 -9 -11 -8 -5 6 3 10 9 15 12 12 3 -3 0 -11 -7 -18z
m-7651 3 c0 -5 -2 -10 -4 -10 -3 0 -8 5 -11 10 -3 6 -1 10 4 10 6 0 11 -4 11
-10z m8220 -25 c14 -19 14 -19 -2 -6 -10 7 -18 18 -18 24 0 6 1 8 3 6 1 -2 9
-13 17 -24z m-7167 0 c-3 -9 -8 -14 -10 -11 -3 3 -2 9 2 15 9 16 15 13 8 -4z
m5578 -28 c-10 -9 -11 -8 -5 6 3 10 9 15 12 12 3 -3 0 -11 -7 -18z m-5598 -17
c-3 -12 -8 -19 -11 -16 -5 6 5 36 12 36 2 0 2 -9 -1 -20z m5375 -5 c-3 -3 -9
2 -12 12 -6 14 -5 15 5 6 7 -7 10 -15 7 -18z m-1750 -20 c-3 -3 -9 2 -12 12
-6 14 -5 15 5 6 7 -7 10 -15 7 -18z m1945 -9 c-10 -13 -20 -22 -22 -20 -4 4
29 44 36 44 2 0 -4 -11 -14 -24z m-4519 -12 c3 -8 2 -12 -4 -9 -6 3 -10 10
-10 16 0 14 7 11 14 -7z m2571 -94 c0 -38 -2 -64 -6 -58 -8 13 -9 141 -1 133
3 -3 6 -37 7 -75z m-3660 60 c-3 -5 -12 -10 -18 -10 -7 0 -6 4 3 10 19 12 23
12 15 0z m1082 -12 c-3 -8 -6 -5 -6 6 -1 11 2 17 5 13 3 -3 4 -12 1 -19z
m2967 6 c3 -8 2 -12 -4 -9 -6 3 -10 10 -10 16 0 14 7 11 14 -7z m1480 -28
c-10 -8 -21 -12 -23 -10 -3 2 4 11 15 18 10 8 21 12 23 10 3 -2 -4 -11 -15
-18z m-1439 -16 c10 -11 16 -20 13 -20 -3 0 -13 9 -23 20 -10 11 -16 20 -13
20 3 0 13 -9 23 -20z m-3135 -24 c-6 -17 -5 -26 3 -30 9 -3 9 -5 0 -5 -6 -1
-14 3 -17 7 -7 12 4 52 15 52 5 0 4 -11 -1 -24z m4519 7 c-8 -9 -13 -26 -11
-37 2 -18 1 -18 -10 4 -12 22 -12 26 7 37 28 16 29 15 14 -4z m1835 -19 c3 -8
2 -12 -4 -9 -6 3 -10 10 -10 16 0 14 7 11 14 -7z m-7354 -13 c0 -5 -9 -19 -20
-32 l-20 -24 17 32 c19 34 23 39 23 24z m7364 -27 c3 -8 2 -12 -4 -9 -6 3 -10
10 -10 16 0 14 7 11 14 -7z m-1844 -14 c0 -5 -4 -10 -10 -10 -5 0 -10 5 -10
10 0 6 5 10 10 10 6 0 10 -4 10 -10z m-4390 -40 c0 -5 -2 -10 -4 -10 -3 0 -8
5 -11 10 -3 6 -1 10 4 10 6 0 11 -4 11 -10z m6704 -16 c3 -8 2 -12 -4 -9 -6 3
-10 10 -10 16 0 14 7 11 14 -7z m-2307 -16 c2 -17 0 -19 -7 -8 -5 8 -6 18 -4
22 8 12 10 10 11 -14z m1883 -28 c0 -5 -2 -10 -4 -10 -3 0 -8 5 -11 10 -3 6
-1 10 4 10 6 0 11 -4 11 -10z m-3563 -35 c0 -8 -4 -12 -9 -9 -5 3 -6 10 -3 15
9 13 12 11 12 -6z m-2830 -17 c2 -17 0 -19 -7 -8 -5 8 -6 18 -4 22 8 12 10 10
11 -14z m6853 12 c0 -5 -2 -10 -4 -10 -3 0 -8 5 -11 10 -3 6 -1 10 4 10 6 0
11 -4 11 -10z m-2320 -20 c0 -5 -2 -10 -4 -10 -3 0 -8 5 -11 10 -3 6 -1 10 4
10 6 0 11 -4 11 -10z m1884 -16 c3 -8 2 -12 -4 -9 -6 3 -10 10 -10 16 0 14 7
11 14 -7z m-5066 -29 c-3 -3 -9 2 -12 12 -6 14 -5 15 5 6 7 -7 10 -15 7 -18z
m-1221 -7 c2 -17 0 -19 -7 -8 -5 8 -6 18 -4 22 8 12 10 10 11 -14z m6301 -13
c-3 -3 -9 2 -12 12 -6 14 -5 15 5 6 7 -7 10 -15 7 -18z m-6400 -40 c-3 -3 -9
2 -12 12 -6 14 -5 15 5 6 7 -7 10 -15 7 -18z m6420 -20 c-3 -3 -9 2 -12 12 -6
14 -5 15 5 6 7 -7 10 -15 7 -18z m-1387 -2 c13 -16 12 -17 -3 -4 -10 7 -18 15
-18 17 0 8 8 3 21 -13z m-3651 -37 c0 -12 -5 -7 -19 24 -11 24 -11 24 3 6 9
-11 16 -24 16 -30z m-131 0 c-3 -3 -11 5 -18 17 -13 21 -12 21 5 5 10 -10 16
-20 13 -22z m3806 4 c3 -5 1 -10 -4 -10 -6 0 -11 5 -11 10 0 6 2 10 4 10 3 0
8 -4 11 -10z m-2368 -22 c-3 -8 -6 -5 -6 6 -1 11 2 17 5 13 3 -3 4 -12 1 -19z
m-3916 -11 c-10 -9 -11 -8 -5 6 3 10 9 15 12 12 3 -3 0 -11 -7 -18z m1684 13
c-3 -5 -12 -10 -18 -10 -7 0 -6 4 3 10 19 12 23 12 15 0z m3289 2 c3 -5 -1 -9
-9 -9 -8 0 -12 4 -9 9 3 4 7 8 9 8 2 0 6 -4 9 -8z m-3714 -32 c6 -11 8 -20 6
-20 -3 0 -10 9 -16 20 -6 11 -8 20 -6 20 3 0 10 -9 16 -20z m1280 -51 c15 -28
5 -23 -15 7 -9 15 -12 23 -6 20 6 -4 16 -16 21 -27z m-1252 -4 c-3 -3 -9 2
-12 12 -6 14 -5 15 5 6 7 -7 10 -15 7 -18z m1402 -30 c14 -19 14 -19 -2 -6
-10 7 -18 18 -18 24 0 6 1 8 3 6 1 -2 9 -13 17 -24z m2960 15 c0 -5 -2 -10 -4
-10 -3 0 -8 5 -11 10 -3 6 -1 10 4 10 6 0 11 -4 11 -10z m-5680 -4 c0 -2 -8
-10 -17 -17 -16 -13 -17 -12 -4 4 13 16 21 21 21 13z m1445 -16 c-3 -5 -12
-10 -18 -10 -7 0 -6 4 3 10 19 12 23 12 15 0z m1160 -10 c10 -11 16 -20 13
-20 -3 0 -13 9 -23 20 -10 11 -16 20 -13 20 3 0 13 -9 23 -20z m-1248 -17 c-4
-3 -1 -13 6 -22 11 -14 10 -14 -5 -2 -16 12 -16 31 -1 31 4 0 3 -3 0 -7z
m1394 -10 c13 -16 12 -17 -3 -4 -17 13 -22 21 -14 21 2 0 10 -8 17 -17z
m-2790 -26 c-10 -9 -11 -8 -5 6 3 10 9 15 12 12 3 -3 0 -11 -7 -18z m2711 -32
c11 -21 8 -18 -32 30 -24 29 -24 29 -2 10 13 -11 28 -29 34 -40z m383 35 c3
-5 -1 -10 -9 -10 -9 0 -16 5 -16 10 0 6 4 10 9 10 6 0 13 -4 16 -10z m2636 -7
c13 -16 12 -17 -3 -4 -10 7 -18 15 -18 17 0 8 8 3 21 -13z m-2910 -10 c13 -16
12 -17 -3 -4 -17 13 -22 21 -14 21 2 0 10 -8 17 -17z m3044 8 c3 -5 2 -12 -3
-15 -5 -3 -9 1 -9 9 0 17 3 19 12 6z m1923 -46 c-3 -3 -9 2 -12 12 -6 14 -5
15 5 6 7 -7 10 -15 7 -18z m-3740 -10 c-3 -3 -9 2 -12 12 -6 14 -5 15 5 6 7
-7 10 -15 7 -18z m1819 3 c-3 -8 -6 -5 -6 6 -1 11 2 17 5 13 3 -3 4 -12 1 -19z
m-3106 -25 l24 -26 -32 23 c-34 25 -39 30 -25 30 5 0 19 -12 33 -27z m135 -5
l19 -23 -25 20 c-14 11 -27 21 -29 22 -2 2 0 3 6 3 5 0 18 -10 29 -22z m-1311
-7 c-3 -6 -11 -11 -16 -11 -5 0 -4 6 3 14 14 16 24 13 13 -3z m-69 -3 c4 -7 4
-10 -1 -6 -4 4 -15 2 -24 -5 -14 -11 -14 -10 -2 6 16 20 18 21 27 5z m1318
-47 c-3 -3 -15 6 -27 18 l-22 24 27 -19 c14 -10 24 -21 22 -23z m1239 14 c4
-8 3 -16 -1 -19 -4 -3 -9 4 -9 15 -2 23 3 25 10 4z m1807 -5 c0 -5 -2 -10 -4
-10 -3 0 -8 5 -11 10 -3 6 -1 10 4 10 6 0 11 -4 11 -10z m-2860 -15 c0 -8 -4
-15 -10 -15 -5 0 -10 7 -10 15 0 8 5 15 10 15 6 0 10 -7 10 -15z m-3109 -78
c-10 -9 -11 -8 -5 6 3 10 9 15 12 12 3 -3 0 -11 -7 -18z m4202 3 c3 -11 3 -20
1 -20 -2 0 -8 9 -14 20 -6 11 -7 20 -2 20 6 0 12 -9 15 -20z m2410 -30 c3 -11
1 -18 -4 -14 -5 3 -9 12 -9 20 0 20 7 17 13 -6z m-6620 -5 c-3 -9 -8 -14 -10
-11 -3 3 -2 9 2 15 9 16 15 13 8 -4z m1414 -37 c-3 -7 -5 -2 -5 12 0 14 2 19
5 13 2 -7 2 -19 0 -25z m2837 -24 c3 -8 2 -12 -4 -9 -6 3 -10 10 -10 16 0 14
7 11 14 -7z m3686 -34 c0 -5 -2 -10 -4 -10 -3 0 -8 5 -11 10 -3 6 -1 10 4 10
6 0 11 -4 11 -10z m-1283 -15 c0 -8 -4 -12 -9 -9 -5 3 -6 10 -3 15 9 13 12 11
12 -6z m-2487 -25 c18 -12 2 -12 -25 0 -13 6 -15 9 -5 9 8 0 22 -4 30 -9z
m-4228 -42 c-8 -8 -9 -4 -5 13 4 13 8 18 11 10 2 -7 -1 -18 -6 -23z m1414 -16
c-17 -16 -18 -16 -5 5 7 12 15 20 18 17 3 -2 -3 -12 -13 -22z m5384 -16 c0 -3
-4 -8 -10 -11 -5 -3 -10 -1 -10 4 0 6 5 11 10 11 6 0 10 -2 10 -4z m1213 -31
c4 -8 3 -16 -1 -19 -4 -3 -9 4 -9 15 -2 23 3 25 10 4z m-3418 -27 c5 4 5 1 1
-6 -6 -10 -11 -10 -22 -1 -8 6 -14 14 -14 16 0 3 6 0 13 -6 8 -6 18 -7 22 -3z
m-3225 -18 c-6 -11 -13 -20 -16 -20 -2 0 0 9 6 20 6 11 13 20 16 20 2 0 0 -9
-6 -20z m-32 -71 c-6 -16 -12 -28 -14 -26 -5 5 13 57 20 57 3 0 0 -14 -6 -31z
m3399 15 c-3 -3 -12 -4 -19 -1 -8 3 -5 6 6 6 11 1 17 -2 13 -5z m-4826 -107
c-10 -9 -11 -8 -5 6 3 10 9 15 12 12 3 -3 0 -11 -7 -18z m1399 13 c0 -5 -2
-10 -4 -10 -3 0 -8 5 -11 10 -3 6 -1 10 4 10 6 0 11 -4 11 -10z m-34 -58 c-15
-15 -15 -15 -4 10 7 15 15 23 17 17 2 -6 -4 -18 -13 -27z m4801 6 c-3 -7 -5
-2 -5 12 0 14 2 19 5 13 2 -7 2 -19 0 -25z m-6167 12 c0 -5 -5 -10 -11 -10 -5
0 -7 5 -4 10 3 6 8 10 11 10 2 0 4 -4 4 -10z m6167 -67 c-3 -10 -5 -4 -5 12 0
17 2 24 5 18 2 -7 2 -21 0 -30z m2521 6 c-3 -8 -7 -3 -11 10 -4 17 -3 21 5 13
5 -5 8 -16 6 -23z m-565 -34 c-7 -21 -12 -19 -10 4 0 11 5 18 9 15 4 -3 5 -11
1 -19z m-8153 -5 c0 -5 -2 -10 -4 -10 -3 0 -8 5 -11 10 -3 6 -1 10 4 10 6 0
11 -4 11 -10z m1587 -12 c-3 -8 -6 -5 -6 6 -1 11 2 17 5 13 3 -3 4 -12 1 -19z
m4610 -10 c-3 -7 -5 -2 -5 12 0 14 2 19 5 13 2 -7 2 -19 0 -25z m-4844 -23
c-3 -9 -8 -14 -10 -11 -3 3 -2 9 2 15 9 16 15 13 8 -4z m6802 5 c3 -5 1 -10
-4 -10 -6 0 -11 5 -11 10 0 6 2 10 4 10 3 0 8 -4 11 -10z m-1958 -32 c2 -17 0
-19 -7 -8 -5 8 -6 18 -4 22 8 12 10 10 11 -14z m-4876 -45 c-12 -20 -14 -14
-5 12 4 9 9 14 11 11 3 -2 0 -13 -6 -23z m7463 -29 c3 -8 2 -12 -4 -9 -6 3
-10 10 -10 16 0 14 7 11 14 -7z m-8824 -8 c0 -3 -4 -8 -10 -11 -5 -3 -10 -1
-10 4 0 6 5 11 10 11 6 0 10 -2 10 -4z m1343 -11 c-3 -9 -8 -14 -10 -11 -3 3
-2 9 2 15 9 16 15 13 8 -4z m6862 6 c3 -5 2 -12 -3 -15 -5 -3 -9 1 -9 9 0 17
3 19 12 6z m629 -27 c3 -8 2 -12 -4 -9 -6 3 -10 10 -10 16 0 14 7 11 14 -7z
m-7247 -46 c-3 -8 -6 -5 -6 6 -1 11 2 17 5 13 3 -3 4 -12 1 -19z m-277 -28 c0
-5 -5 -10 -11 -10 -5 0 -7 5 -4 10 3 6 8 10 11 10 2 0 4 -4 4 -10z m7558 -15
c-3 -3 -9 2 -12 12 -6 14 -5 15 5 6 7 -7 10 -15 7 -18z m-670 -10 c-3 -3 -9 2
-12 12 -6 14 -5 15 5 6 7 -7 10 -15 7 -18z m-6623 -44 c3 -5 2 -12 -3 -15 -5
-3 -9 1 -9 9 0 17 3 19 12 6z m-302 -26 c-3 -9 -8 -14 -10 -11 -3 3 -2 9 2 15
9 16 15 13 8 -4z m138 -18 c-10 -9 -11 -8 -5 6 3 10 9 15 12 12 3 -3 0 -11 -7
-18z m7499 -7 c6 -11 8 -20 6 -20 -3 0 -10 9 -16 20 -6 11 -8 20 -6 20 3 0 10
-9 16 -20z m-710 -14 c0 -3 -4 -8 -10 -11 -5 -3 -10 -1 -10 4 0 6 5 11 10 11
6 0 10 -2 10 -4z m-8273 -31 c0 -8 -4 -12 -9 -9 -5 3 -6 10 -3 15 9 13 12 11
12 -6z m9011 -30 c-3 -3 -9 2 -12 12 -6 14 -5 15 5 6 7 -7 10 -15 7 -18z
m-7697 -8 c-10 -9 -11 -8 -5 6 3 10 9 15 12 12 3 -3 0 -11 -7 -18z m-1326 -36
c3 -5 2 -12 -3 -15 -5 -3 -9 1 -9 9 0 17 3 19 12 6z m8266 -34 c-10 -9 -11 -8
-5 6 3 10 9 15 12 12 3 -3 0 -11 -7 -18z m794 13 c3 -5 1 -10 -4 -10 -6 0 -11
5 -11 10 0 6 2 10 4 10 3 0 8 -4 11 -10z m-2898 -15 c0 -8 -4 -12 -9 -9 -5 3
-6 10 -3 15 9 13 12 11 12 -6z m-6172 -5 c3 -5 1 -10 -4 -10 -6 0 -11 5 -11
10 0 6 2 10 4 10 3 0 8 -4 11 -10z m8280 -19 c3 -5 2 -12 -3 -15 -5 -3 -9 1
-9 9 0 17 3 19 12 6z m810 -1 c3 -5 1 -10 -4 -10 -6 0 -11 5 -11 10 0 6 2 10
4 10 3 0 8 -4 11 -10z m16 -37 c13 -16 12 -17 -3 -4 -10 7 -18 15 -18 17 0 8
8 3 21 -13z m-9126 -62 c3 -5 2 -12 -3 -15 -5 -3 -9 1 -9 9 0 17 3 19 12 6z
m9173 -27 c-4 -3 -12 5 -18 18 -12 22 -12 22 6 6 10 -10 15 -20 12 -24z m-885
-9 c-3 -9 -8 -14 -10 -11 -3 3 -2 9 2 15 9 16 15 13 8 -4z m-6 -47 c-3 -8 -6
-5 -6 6 -1 11 2 17 5 13 3 -3 4 -12 1 -19z m-8306 -15 c-12 -20 -14 -14 -5 12
4 9 9 14 11 11 3 -2 0 -13 -6 -23z m9257 -28 c-3 -3 -9 2 -12 12 -6 14 -5 15
5 6 7 -7 10 -15 7 -18z m-3095 -25 c-3 -12 -8 -19 -11 -16 -5 6 5 36 12 36 2
0 2 -9 -1 -20z m2134 -12 c-3 -8 -6 -5 -6 6 -1 11 2 17 5 13 3 -3 4 -12 1 -19z
m-10 -90 c-3 -8 -6 -5 -6 6 -1 11 2 17 5 13 3 -3 4 -12 1 -19z m-2147 -18 c0
-5 -5 -10 -11 -10 -5 0 -7 5 -4 10 3 6 8 10 11 10 2 0 4 -4 4 -10z m3221 -27
c13 -16 12 -17 -3 -4 -10 7 -18 15 -18 17 0 8 8 3 21 -13z m-3240 -36 c-10 -9
-11 -8 -5 6 3 10 9 15 12 12 3 -3 0 -11 -7 -18z m3268 -6 c8 -15 7 -20 -8 -24
-10 -2 -25 0 -32 5 -11 7 -9 8 6 6 14 -2 20 2 19 15 -2 22 3 22 15 -2z m-9422
-73 c-3 -8 -6 -5 -6 6 -1 11 2 17 5 13 3 -3 4 -12 1 -19z m6266 -3 c-3 -9 -8
-14 -10 -11 -3 3 -2 9 2 15 9 16 15 13 8 -4z m-140 -20 c-3 -9 -8 -14 -10 -11
-3 3 -2 9 2 15 9 16 15 13 8 -4z m-6131 -27 c-8 -8 -9 -4 -5 13 4 13 8 18 11
10 2 -7 -1 -18 -6 -23z m-1 -41 c-10 -9 -11 -8 -5 6 3 10 9 15 12 12 3 -3 0
-11 -7 -18z m1779 -117 c0 -5 -5 -10 -11 -10 -5 0 -7 5 -4 10 3 6 8 10 11 10
2 0 4 -4 4 -10z m4261 -43 c-10 -9 -11 -8 -5 6 3 10 9 15 12 12 3 -3 0 -11 -7
-18z m139 9 c0 -3 -4 -8 -10 -11 -5 -3 -10 -1 -10 4 0 6 5 11 10 11 6 0 10 -2
10 -4z m-6173 -81 c0 -8 -4 -12 -9 -9 -5 3 -6 10 -3 15 9 13 12 11 12 -6z
m5991 -30 c-6 -14 -13 -23 -15 -21 -5 5 15 46 22 46 3 0 -1 -11 -7 -25z
m-5991 -30 c0 -8 -4 -12 -9 -9 -5 3 -6 10 -3 15 9 13 12 11 12 -6z m1863 -79
c0 -3 -4 -8 -10 -11 -5 -3 -10 -1 -10 4 0 6 5 11 10 11 6 0 10 -2 10 -4z
m-1852 -51 c-3 -3 -9 2 -12 12 -6 14 -5 15 5 6 7 -7 10 -15 7 -18z m8163 2
c-10 -9 -11 -8 -5 6 3 10 9 15 12 12 3 -3 0 -11 -7 -18z m-2271 -36 c-5 -11
-15 -23 -21 -27 -6 -3 -3 5 6 20 20 30 30 35 15 7z m120 4 c-7 -9 -15 -13 -19
-10 -3 3 1 10 9 15 21 14 24 12 10 -5z m-30 -59 c0 -2 -7 -7 -16 -10 -8 -3
-12 -2 -9 4 6 10 25 14 25 6z m-4062 -31 c-3 -3 -9 2 -12 12 -6 14 -5 15 5 6
7 -7 10 -15 7 -18z m3922 5 c-6 -11 -13 -20 -16 -20 -2 0 0 9 6 20 6 11 13 20
16 20 2 0 0 -9 -6 -20z m2281 -33 c-10 -9 -11 -8 -5 6 3 10 9 15 12 12 3 -3 0
-11 -7 -18z m-6167 -33 c3 -8 2 -12 -4 -9 -6 3 -10 10 -10 16 0 14 7 11 14 -7z
m3840 -9 c-9 -14 -18 -25 -21 -25 -5 0 5 18 20 38 17 22 18 13 1 -13z m109 -9
c-10 -13 -20 -22 -22 -20 -4 4 29 44 36 44 2 0 -4 -11 -14 -24z m-3918 -26
c10 -11 16 -20 13 -20 -3 0 -13 9 -23 20 -10 11 -16 20 -13 20 3 0 13 -9 23
-20z m3763 -40 c-7 -11 -17 -20 -22 -20 -5 0 -1 9 9 20 10 11 20 20 22 20 2 0
-2 -9 -9 -20z m-5688 -10 c0 -5 -2 -10 -4 -10 -3 0 -8 5 -11 10 -3 6 -1 10 4
10 6 0 11 -4 11 -10z m5800 6 c0 -2 -7 -7 -16 -10 -8 -3 -12 -2 -9 4 6 10 25
14 25 6z m-3830 -21 c7 -9 8 -15 2 -15 -5 0 -12 7 -16 15 -3 8 -4 15 -2 15 2
0 9 -7 16 -15z m50 -49 c0 -3 -4 -8 -10 -11 -5 -3 -10 -1 -10 4 0 6 5 11 10
11 6 0 10 -2 10 -4z m3581 -49 c-10 -9 -11 -8 -5 6 3 10 9 15 12 12 3 -3 0
-11 -7 -18z m-21 -21 c0 -2 -8 -10 -17 -17 -16 -13 -17 -12 -4 4 13 16 21 21
21 13z m-3793 -28 c-3 -8 -6 -5 -6 6 -1 11 2 17 5 13 3 -3 4 -12 1 -19z m307
-4 c3 -8 2 -12 -4 -9 -6 3 -10 10 -10 16 0 14 7 11 14 -7z m5873 -6 c-3 -8 -6
-5 -6 6 -1 11 2 17 5 13 3 -3 4 -12 1 -19z m-2330 -14 c-12 -14 -35 -35 -52
-47 -22 -15 -18 -8 15 25 48 50 75 65 37 22z m-3472 -42 c-3 -3 -11 0 -18 7
-9 10 -8 11 6 5 10 -3 15 -9 12 -12z m56 -48 c9 -11 2 -9 -18 6 -18 13 -33 25
-33 27 0 8 38 -17 51 -33z m-2123 -9 c-3 -3 -9 2 -12 12 -6 14 -5 15 5 6 7 -7
10 -15 7 -18z m6142 -10 c-7 -9 -15 -13 -19 -10 -3 3 1 10 9 15 21 14 24 12
10 -5z m-3960 -25 c0 -5 -2 -10 -4 -10 -3 0 -8 5 -11 10 -3 6 -1 10 4 10 6 0
11 -4 11 -10z m-2140 -45 c0 -5 -5 -3 -10 5 -5 8 -10 20 -10 25 0 6 5 3 10 -5
5 -8 10 -19 10 -25z m2171 18 c13 -16 12 -17 -3 -4 -17 13 -22 21 -14 21 2 0
10 -8 17 -17z m3149 13 c0 -2 -7 -7 -16 -10 -8 -3 -12 -2 -9 4 6 10 25 14 25
6z m-3042 -82 c15 -7 20 -14 12 -14 -8 0 -26 10 -40 21 -14 11 -19 18 -12 14
6 -3 24 -13 40 -21z m-2238 -4 c0 -5 -2 -10 -4 -10 -3 0 -8 5 -11 10 -3 6 -1
10 4 10 6 0 11 -4 11 -10z m39 -64 c-2 -2 -13 8 -23 22 l-19 27 24 -22 c12
-12 21 -24 18 -27z m2275 18 c3 -8 2 -12 -4 -9 -6 3 -10 10 -10 16 0 14 7 11
14 -7z m3791 -3 c3 -5 2 -12 -3 -15 -5 -3 -9 1 -9 9 0 17 3 19 12 6z m-3735
-27 c0 -2 -9 0 -20 6 -11 6 -20 13 -20 16 0 2 9 0 20 -6 11 -6 20 -13 20 -16z
m-2305 -24 c10 -11 16 -20 13 -20 -3 0 -13 9 -23 20 -10 11 -16 20 -13 20 3 0
13 -9 23 -20z m2416 -38 c-7 -2 -18 1 -23 6 -8 8 -4 9 13 5 13 -4 18 -8 10
-11z m-2331 -80 c0 -9 -69 72 -70 81 0 5 16 -10 35 -33 19 -23 35 -44 35 -48z
m2365 68 c3 -5 1 -10 -4 -10 -6 0 -11 5 -11 10 0 6 2 10 4 10 3 0 8 -4 11 -10z
m3528 -25 c-3 -9 -8 -14 -10 -11 -3 3 -2 9 2 15 9 16 15 13 8 -4z m-3448 -13
c-3 -3 -11 0 -18 7 -9 10 -8 11 6 5 10 -3 15 -9 12 -12z m60 -22 c3 -6 -1 -7
-9 -4 -18 7 -21 14 -7 14 6 0 13 -4 16 -10z m-2460 -50 l30 -35 -32 29 c-18
17 -33 34 -33 40 0 5 1 7 3 5 1 -2 16 -20 32 -39z m1000 30 c3 -6 -1 -7 -9 -4
-18 7 -21 14 -7 14 6 0 13 -4 16 -10z m1575 -20 c8 -5 11 -10 5 -10 -5 0 -17
5 -25 10 -8 5 -10 10 -5 10 6 0 17 -5 25 -10z m35 -10 c3 -5 1 -10 -4 -10 -6
0 -11 5 -11 10 0 6 2 10 4 10 3 0 8 -4 11 -10z m75 -26 c0 -2 -11 -3 -24 -2
-14 1 -23 5 -20 9 4 7 44 0 44 -7z m135 -44 c3 -6 -1 -7 -9 -4 -18 7 -21 14
-7 14 6 0 13 -4 16 -10z m69 -8 c3 -5 -1 -9 -9 -9 -8 0 -12 4 -9 9 3 4 7 8 9
8 2 0 6 -4 9 -8z m2841 -37 c-14 -21 -25 -34 -25 -30 0 11 43 75 48 71 2 -2
-8 -21 -23 -41z m-5590 -33 c-3 -3 -6 -3 -7 -1 -2 2 -14 18 -28 34 l-25 30 32
-29 c18 -16 31 -32 28 -34z m2805 48 c0 -5 -2 -10 -4 -10 -3 0 -8 5 -11 10 -3
6 -1 10 4 10 6 0 11 -4 11 -10z m125 -38 c-3 -3 -11 0 -18 7 -9 10 -8 11 6 5
10 -3 15 -9 12 -12z m50 -2 c3 -5 1 -10 -4 -10 -6 0 -11 5 -11 10 0 6 2 10 4
10 3 0 8 -4 11 -10z m225 -40 c0 -5 -2 -10 -4 -10 -3 0 -8 5 -11 10 -3 6 -1
10 4 10 6 0 11 -4 11 -10z m-1885 -18 c-3 -3 -11 0 -18 7 -9 10 -8 11 6 5 10
-3 15 -9 12 -12z m4215 5 c0 -2 -10 -12 -22 -23 l-23 -19 19 23 c18 21 26 27
26 19z m-4090 -33 c0 -2 -7 -4 -15 -4 -8 0 -15 4 -15 10 0 5 7 7 15 4 8 -4 15
-8 15 -10z m5440 -128 c0 -2 -7 -7 -16 -10 -8 -3 -12 -2 -9 4 6 10 25 14 25 6z
m-1500 -30 c0 -2 -8 -10 -17 -17 -16 -13 -17 -12 -4 4 13 16 21 21 21 13z
m1433 -31 c-3 -9 -8 -14 -10 -11 -3 3 -2 9 2 15 9 16 15 13 8 -4z m-1482 -23
c-10 -18 -36 -43 -61 -57 -8 -5 3 10 25 33 45 46 50 49 36 24z m-4311 -78 c0
-1 -8 0 -19 3 -10 2 -29 19 -41 36 l-23 31 41 -34 c23 -18 42 -34 42 -36z
m4196 -34 c-24 -22 -46 -40 -49 -40 -9 0 76 79 85 80 4 0 -12 -18 -36 -40z
m-163 -145 c-3 -9 -8 -14 -10 -11 -3 3 -2 9 2 15 9 16 15 13 8 -4z"/>
<path d="M7415 5939 c-3 -4 2 -6 10 -5 21 3 28 13 10 13 -9 0 -18 -4 -20 -8z"/>
<path d="M7406 5902 c-3 -5 1 -9 9 -9 8 0 12 4 9 9 -3 4 -7 8 -9 8 -2 0 -6 -4
-9 -8z"/>
<path d="M7454 5862 c4 -3 14 -7 22 -8 9 -1 13 0 10 4 -4 3 -14 7 -22 8 -9 1
-13 0 -10 -4z"/>
</g>
</svg>
